<svg width="16" height="16" viewBox="0 0 14 14" fill="none" xmlns="http://www.w3.org/2000/svg">
    <g clip-path="url(#clip0_49_1555)">
        <path
            d="M14 7C14 10.866 10.866 14 7 14C3.13396 14 0 10.866 0 7C0 3.13396 3.13396 0 7 0C10.866 0 14 3.13396 14 7Z"
            fill="#26A17B" />
        <path
            d="M7.84085 7.60515V7.60427C7.79273 7.60777 7.54481 7.62265 6.99123 7.62265C6.54935 7.62265 6.23829 7.60952 6.12891 7.60427V7.60559C4.42791 7.53077 3.15829 7.23459 3.15829 6.88021C3.15829 6.52627 4.42791 6.23009 6.12891 6.15396V7.31071C6.24004 7.31859 6.55854 7.3374 6.99866 7.3374C7.52673 7.3374 7.79141 7.31552 7.84085 7.31115V6.15484C9.53835 6.23052 10.8049 6.52671 10.8049 6.88021C10.8049 7.23459 9.53835 7.5299 7.84085 7.60515ZM7.84085 6.03452V4.9994H10.2095V3.4209H3.76029V4.9994H6.12891V6.03409C4.20391 6.12246 2.75623 6.50396 2.75623 6.96071C2.75623 7.41746 4.20391 7.79852 6.12891 7.88734V11.2045H7.841V7.88646C9.76279 7.79809 11.207 7.41702 11.207 6.96071C11.207 6.5044 9.76279 6.12334 7.84085 6.03452Z"
            fill="white" />
    </g>
    <defs>
        <clipPath id="clip0_49_1555">
            <rect width="14" height="14" fill="white" />
        </clipPath>
    </defs>
</svg>
    