<svg width="126" height="196" viewBox="0 0 126 196" fill="none" xmlns="http://www.w3.org/2000/svg">
<g filter="url(#filter0_d_786_36)">
<rect x="3" y="3" width="120" height="190" rx="6" fill="white"/>
</g>
<path d="M29.692 50.536C29.692 46.012 34.528 42.58 35.984 41.852V41.696C33.852 40.552 30.628 37.692 30.628 33.636C30.628 27.864 35.62 24.12 41.912 24.12C48.412 24.12 53.404 27.864 53.404 33.636C53.404 37.588 50.18 40.396 48.048 41.644V41.852C50.388 43.048 54.34 46.064 54.34 50.536C54.34 56.204 49.556 60.52 41.912 60.52C34.476 60.52 29.692 56.204 29.692 50.536ZM42.016 38.836C45.24 38.108 46.748 36.132 46.748 33.896C46.748 31.4 44.616 29.476 41.912 29.476C39.416 29.476 37.284 31.4 37.284 33.896C37.284 36.236 38.74 38.056 42.016 38.836ZM36.608 50.432C36.608 53.292 39.208 55.216 42.016 55.216C44.876 55.216 47.424 53.292 47.424 50.432C47.424 48.092 45.5 45.7 42.016 44.92C38.532 45.7 36.608 48.092 36.608 50.432Z" fill="#E9113C"/>
<g clip-path="url(#clip0_786_36)">
<path fill-rule="evenodd" clip-rule="evenodd" d="M46.0918 84.7062L66.3027 104.909C66.8419 105.446 67.2695 106.084 67.5609 106.787C67.8524 107.49 68.0019 108.243 68.0008 109.004C68.0018 109.765 67.8523 110.518 67.5608 111.221C67.2694 111.924 66.8418 112.562 66.3027 113.099L46.0901 133.302C45.5552 133.838 44.9196 134.263 44.2199 134.552C43.5202 134.842 42.7702 134.99 42.013 134.989C41.9431 134.989 41.8716 134.989 41.8099 134.986V134.989H41.8018C40.3373 134.946 38.945 134.344 37.9099 133.307L17.6973 113.102C17.1583 112.565 16.7308 111.927 16.4395 111.224C16.1482 110.522 15.9988 109.768 16 109.007C16 107.407 16.6484 105.96 17.6981 104.912L37.9091 84.7078V84.7094C38.9426 83.6694 40.3347 83.0639 41.8001 83.017L41.8018 83.0138H41.792C41.8635 83.0121 41.935 83.0105 42.0065 83.0105C42.7657 83.0096 43.5175 83.159 44.2186 83.45C44.9198 83.741 45.5564 84.168 46.0918 84.7062Z" fill="#E9113C"/>
</g>
<defs>
<filter id="filter0_d_786_36" x="0" y="0" width="126" height="196" filterUnits="userSpaceOnUse" color-interpolation-filters="sRGB">
<feFlood flood-opacity="0" result="BackgroundImageFix"/>
<feColorMatrix in="SourceAlpha" type="matrix" values="0 0 0 0 0 0 0 0 0 0 0 0 0 0 0 0 0 0 127 0" result="hardAlpha"/>
<feOffset/>
<feGaussianBlur stdDeviation="1.5"/>
<feComposite in2="hardAlpha" operator="out"/>
<feColorMatrix type="matrix" values="0 0 0 0 0 0 0 0 0 0 0 0 0 0 0 0 0 0 0.3 0"/>
<feBlend mode="normal" in2="BackgroundImageFix" result="effect1_dropShadow_786_36"/>
<feBlend mode="normal" in="SourceGraphic" in2="effect1_dropShadow_786_36" result="shape"/>
</filter>
<clipPath id="clip0_786_36">
<rect width="52" height="52" fill="white" transform="translate(16 83)"/>
</clipPath>
</defs>
</svg>
