<svg width="126" height="196" viewBox="0 0 126 196" fill="none" xmlns="http://www.w3.org/2000/svg">
<g filter="url(#filter0_d_786_61)">
<rect x="3" y="3" width="120" height="190" rx="6" fill="white"/>
</g>
<path d="M30.288 55.892C29.976 55.528 30.028 54.956 30.34 54.592L32.992 52.044C33.46 51.628 33.928 51.628 34.344 52.044C34.5 52.252 37.568 54.852 40.74 54.852C43.548 54.852 46.252 52.824 46.252 49.964C46.252 47.26 43.756 44.816 39.076 44.816H36.164C35.592 44.816 35.176 44.4 35.176 43.776V40.5C35.176 39.824 35.54 39.46 36.164 39.46H39.076C43.34 39.46 45.524 37.328 45.524 34.676C45.524 31.816 43.132 29.892 40.48 29.892C37.776 29.892 36.112 31.348 35.228 32.388C34.864 32.804 34.292 32.856 33.824 32.44L31.276 30.048C30.86 29.684 30.912 29.06 31.276 28.696C31.276 28.696 35.228 24.12 41.052 24.12C47.084 24.12 52.128 27.812 52.128 33.636C52.128 37.64 49.112 40.656 46.772 41.748V41.904C49.216 42.944 53.064 45.752 53.064 50.38C53.064 56.256 48.28 60.52 41.104 60.52C34.604 60.52 31.432 57.244 30.288 55.892Z" fill="#E9113C"/>
<g clip-path="url(#clip0_786_61)">
<path fill-rule="evenodd" clip-rule="evenodd" d="M46.0918 84.7062L66.3027 104.909C66.8419 105.446 67.2695 106.084 67.5609 106.787C67.8524 107.49 68.0019 108.243 68.0008 109.004C68.0018 109.765 67.8523 110.518 67.5608 111.221C67.2694 111.924 66.8418 112.562 66.3027 113.099L46.0901 133.302C45.5552 133.838 44.9196 134.263 44.2199 134.552C43.5202 134.842 42.7702 134.99 42.013 134.989C41.9431 134.989 41.8716 134.989 41.8099 134.986V134.989H41.8018C40.3373 134.946 38.945 134.344 37.9099 133.307L17.6973 113.102C17.1583 112.565 16.7308 111.927 16.4395 111.224C16.1482 110.522 15.9988 109.768 16 109.007C16 107.407 16.6484 105.96 17.6981 104.912L37.9091 84.7078V84.7094C38.9426 83.6694 40.3347 83.0639 41.8001 83.017L41.8018 83.0138H41.792C41.8635 83.0121 41.935 83.0105 42.0065 83.0105C42.7657 83.0096 43.5175 83.159 44.2186 83.45C44.9198 83.741 45.5564 84.168 46.0918 84.7062Z" fill="#E9113C"/>
</g>
<defs>
<filter id="filter0_d_786_61" x="0" y="0" width="126" height="196" filterUnits="userSpaceOnUse" color-interpolation-filters="sRGB">
<feFlood flood-opacity="0" result="BackgroundImageFix"/>
<feColorMatrix in="SourceAlpha" type="matrix" values="0 0 0 0 0 0 0 0 0 0 0 0 0 0 0 0 0 0 127 0" result="hardAlpha"/>
<feOffset/>
<feGaussianBlur stdDeviation="1.5"/>
<feComposite in2="hardAlpha" operator="out"/>
<feColorMatrix type="matrix" values="0 0 0 0 0 0 0 0 0 0 0 0 0 0 0 0 0 0 0.3 0"/>
<feBlend mode="normal" in2="BackgroundImageFix" result="effect1_dropShadow_786_61"/>
<feBlend mode="normal" in="SourceGraphic" in2="effect1_dropShadow_786_61" result="shape"/>
</filter>
<clipPath id="clip0_786_61">
<rect width="52" height="52" fill="white" transform="translate(16 83)"/>
</clipPath>
</defs>
</svg>
