<svg width="126" height="196" viewBox="0 0 126 196" fill="none" xmlns="http://www.w3.org/2000/svg">
<g filter="url(#filter0_d_786_31)">
<rect x="3" y="3" width="120" height="190" rx="6" fill="white"/>
</g>
<path d="M34.3084 57.036C34.0484 56.412 34.2564 55.84 35.2444 55.528C37.6884 54.748 45.0724 51.264 46.6844 45.544C45.8004 46.064 43.2004 47 40.7564 47C35.5564 47 30.1484 43.152 30.1484 35.716C30.1484 29.164 35.5044 23.808 41.9004 23.808C50.0644 23.808 54.2764 30.36 54.2764 38.16C54.2764 53.344 41.4324 59.376 36.9604 60.832C36.2324 61.04 35.7124 60.78 35.5044 60.104L34.3084 57.036ZM42.0044 41.904C45.4364 41.904 47.4644 39.252 48.0364 37.38C48.0364 33.844 46.1644 29.736 41.9524 29.736C38.6764 29.736 36.0244 32.544 36.0244 35.82C36.0244 39.148 38.6764 41.904 42.0044 41.904Z" fill="#E9113C"/>
<g clip-path="url(#clip0_786_31)">
<path fill-rule="evenodd" clip-rule="evenodd" d="M46.0918 84.7062L66.3027 104.909C66.8419 105.446 67.2695 106.084 67.5609 106.787C67.8524 107.49 68.0019 108.243 68.0008 109.004C68.0018 109.765 67.8523 110.518 67.5608 111.221C67.2694 111.924 66.8418 112.562 66.3027 113.099L46.0901 133.302C45.5552 133.838 44.9196 134.263 44.2199 134.552C43.5202 134.842 42.7702 134.99 42.013 134.989C41.9431 134.989 41.8716 134.989 41.8099 134.986V134.989H41.8018C40.3373 134.946 38.945 134.344 37.9099 133.307L17.6973 113.102C17.1583 112.565 16.7308 111.927 16.4395 111.224C16.1482 110.522 15.9988 109.768 16 109.007C16 107.407 16.6484 105.96 17.6981 104.912L37.9091 84.7078V84.7094C38.9426 83.6694 40.3347 83.0639 41.8001 83.017L41.8018 83.0138H41.792C41.8635 83.0121 41.935 83.0105 42.0065 83.0105C42.7657 83.0096 43.5175 83.159 44.2186 83.45C44.9198 83.741 45.5564 84.168 46.0918 84.7062Z" fill="#E9113C"/>
</g>
<defs>
<filter id="filter0_d_786_31" x="0" y="0" width="126" height="196" filterUnits="userSpaceOnUse" color-interpolation-filters="sRGB">
<feFlood flood-opacity="0" result="BackgroundImageFix"/>
<feColorMatrix in="SourceAlpha" type="matrix" values="0 0 0 0 0 0 0 0 0 0 0 0 0 0 0 0 0 0 127 0" result="hardAlpha"/>
<feOffset/>
<feGaussianBlur stdDeviation="1.5"/>
<feComposite in2="hardAlpha" operator="out"/>
<feColorMatrix type="matrix" values="0 0 0 0 0 0 0 0 0 0 0 0 0 0 0 0 0 0 0.3 0"/>
<feBlend mode="normal" in2="BackgroundImageFix" result="effect1_dropShadow_786_31"/>
<feBlend mode="normal" in="SourceGraphic" in2="effect1_dropShadow_786_31" result="shape"/>
</filter>
<clipPath id="clip0_786_31">
<rect width="52" height="52" fill="white" transform="translate(16 83)"/>
</clipPath>
</defs>
</svg>
