<svg width="126" height="196" viewBox="0 0 126 196" fill="none" xmlns="http://www.w3.org/2000/svg">
<g filter="url(#filter0_d_786_288)">
<rect x="3" y="3" width="120" height="190" rx="6" fill="white"/>
</g>
<path d="M23.132 41.852C23.132 31.452 31.4 23.08 41.8 23.08C52.2 23.08 60.52 31.452 60.52 41.852C60.52 48.924 56.412 55.164 50.38 58.492L56.88 68.736C57.348 69.464 56.88 70.296 56.048 70.296H50.536C50.328 70.296 49.86 70.088 49.704 69.776L44.14 60.364C43.308 60.468 42.424 60.52 41.8 60.52C31.4 60.52 23.132 52.252 23.132 41.852ZM29.892 41.852C29.892 48.404 35.248 53.76 41.8 53.76C48.352 53.76 53.76 48.404 53.76 41.852C53.76 35.3 48.352 29.84 41.8 29.84C35.248 29.84 29.892 35.3 29.892 41.852Z" fill="#E9113C"/>
<g clip-path="url(#clip0_786_288)">
<path fill-rule="evenodd" clip-rule="evenodd" d="M41.1119 128.009L16.3713 103.269V103.27C16.2532 103.153 16.1596 103.013 16.0958 102.858C16.0321 102.704 15.9995 102.539 16 102.372C16 102.021 16.1414 101.706 16.3721 101.475L27.8527 89.9948C27.9703 89.8766 28.1101 89.7829 28.264 89.7191C28.418 89.6552 28.5831 89.6224 28.7497 89.6227C29.1007 89.6227 29.4168 89.7649 29.6467 89.9948L41.1119 101.475C41.3329 101.696 41.636 101.835 41.9716 101.843L42.0528 101.833H42.0561C42.3754 101.823 42.6789 101.691 42.9051 101.466L54.3533 90.0176C54.4709 89.8995 54.6107 89.806 54.7646 89.7422C54.9186 89.6785 55.0836 89.6459 55.2502 89.6462C55.6012 89.6462 55.9165 89.7876 56.1472 90.0176L67.6279 101.491C67.7462 101.608 67.8401 101.748 67.9042 101.902C67.9683 102.056 68.0013 102.221 68.0013 102.388C68.0013 102.555 67.9683 102.72 67.9042 102.874C67.8401 103.028 67.7462 103.168 67.6279 103.286L42.9051 128.009V128.008C42.6857 128.225 42.3876 128.363 42.0553 128.375L42.0577 128.376C42.0469 128.377 42.036 128.377 42.0252 128.377H42.0016C41.6547 128.377 41.3394 128.237 41.1119 128.009Z" fill="#E9113C"/>
</g>
<defs>
<filter id="filter0_d_786_288" x="0" y="0" width="126" height="196" filterUnits="userSpaceOnUse" color-interpolation-filters="sRGB">
<feFlood flood-opacity="0" result="BackgroundImageFix"/>
<feColorMatrix in="SourceAlpha" type="matrix" values="0 0 0 0 0 0 0 0 0 0 0 0 0 0 0 0 0 0 127 0" result="hardAlpha"/>
<feOffset/>
<feGaussianBlur stdDeviation="1.5"/>
<feComposite in2="hardAlpha" operator="out"/>
<feColorMatrix type="matrix" values="0 0 0 0 0 0 0 0 0 0 0 0 0 0 0 0 0 0 0.3 0"/>
<feBlend mode="normal" in2="BackgroundImageFix" result="effect1_dropShadow_786_288"/>
<feBlend mode="normal" in="SourceGraphic" in2="effect1_dropShadow_786_288" result="shape"/>
</filter>
<clipPath id="clip0_786_288">
<rect width="52" height="52" fill="white" transform="translate(16 83)"/>
</clipPath>
</defs>
</svg>
