<svg width="126" height="196" viewBox="0 0 126 196" fill="none" xmlns="http://www.w3.org/2000/svg">
<g filter="url(#filter0_d_786_293)">
<rect x="3" y="3" width="120" height="190" rx="6" fill="white"/>
</g>
<path d="M30.168 56.724C29.908 56.308 29.96 55.788 30.272 55.424L32.976 52.668C33.548 52.148 34.068 52.252 34.536 52.72C35.212 53.448 36.252 54.384 37.968 54.384C39.996 54.384 42.128 52.72 42.128 49.132V24.588C42.128 24.068 42.544 23.6 43.116 23.6H48.004C48.576 23.6 48.992 24.068 48.992 24.588V49.132C48.992 56.36 44.156 60.52 38.072 60.52C33.548 60.52 31.052 57.816 30.168 56.724Z" fill="#E9113C"/>
<g clip-path="url(#clip0_786_293)">
<path fill-rule="evenodd" clip-rule="evenodd" d="M41.1119 128.009L16.3713 103.269V103.27C16.2532 103.153 16.1596 103.013 16.0958 102.858C16.0321 102.704 15.9995 102.539 16 102.372C16 102.021 16.1414 101.706 16.3721 101.475L27.8527 89.9948C27.9703 89.8766 28.1101 89.7829 28.264 89.7191C28.418 89.6552 28.5831 89.6224 28.7497 89.6227C29.1007 89.6227 29.4168 89.7649 29.6467 89.9948L41.1119 101.475C41.3329 101.696 41.636 101.835 41.9716 101.843L42.0528 101.833H42.0561C42.3754 101.823 42.6789 101.691 42.9051 101.466L54.3532 90.0176C54.4709 89.8995 54.6107 89.806 54.7646 89.7422C54.9186 89.6785 55.0836 89.6459 55.2502 89.6462C55.6012 89.6462 55.9165 89.7876 56.1472 90.0176L67.6279 101.491C67.7462 101.608 67.8401 101.748 67.9042 101.902C67.9683 102.056 68.0013 102.221 68.0013 102.388C68.0013 102.555 67.9683 102.72 67.9042 102.874C67.8401 103.028 67.7462 103.168 67.6279 103.286L42.9051 128.009V128.008C42.6857 128.225 42.3876 128.363 42.0552 128.375L42.0577 128.376C42.0469 128.377 42.036 128.377 42.0252 128.377H42.0016C41.6547 128.377 41.3394 128.237 41.1119 128.009Z" fill="#E9113C"/>
</g>
<defs>
<filter id="filter0_d_786_293" x="0" y="0" width="126" height="196" filterUnits="userSpaceOnUse" color-interpolation-filters="sRGB">
<feFlood flood-opacity="0" result="BackgroundImageFix"/>
<feColorMatrix in="SourceAlpha" type="matrix" values="0 0 0 0 0 0 0 0 0 0 0 0 0 0 0 0 0 0 127 0" result="hardAlpha"/>
<feOffset/>
<feGaussianBlur stdDeviation="1.5"/>
<feComposite in2="hardAlpha" operator="out"/>
<feColorMatrix type="matrix" values="0 0 0 0 0 0 0 0 0 0 0 0 0 0 0 0 0 0 0.3 0"/>
<feBlend mode="normal" in2="BackgroundImageFix" result="effect1_dropShadow_786_293"/>
<feBlend mode="normal" in="SourceGraphic" in2="effect1_dropShadow_786_293" result="shape"/>
</filter>
<clipPath id="clip0_786_293">
<rect width="52" height="52" fill="white" transform="translate(16 83)"/>
</clipPath>
</defs>
</svg>
