<svg width="126" height="196" viewBox="0 0 126 196" fill="none" xmlns="http://www.w3.org/2000/svg">
<g filter="url(#filter0_d_786_298)">
<rect x="3" y="3" width="120" height="190" rx="6" fill="white"/>
</g>
<path d="M24.3398 59.012V34.104L19.7638 35.092C19.2958 35.196 18.7758 34.884 18.7238 34.416L18.4118 31.868C18.3598 31.452 18.4638 31.14 18.6718 30.932L26.1598 24.64H29.7998C30.3198 24.64 30.7358 25.108 30.7358 25.628V59.012C30.7358 59.532 30.3198 60 29.7998 60H25.3278C24.7558 60 24.3398 59.532 24.3398 59.012ZM51.7174 60.52C43.3974 60.52 38.6134 53.708 38.6134 42.32C38.6134 30.932 43.3974 24.12 51.7174 24.12C60.0374 24.12 64.8214 30.932 64.8214 42.32C64.8214 53.708 60.0374 60.52 51.7174 60.52ZM51.7174 54.384C55.7214 54.384 58.0094 50.068 58.0094 42.32C58.0094 34.624 55.7214 30.256 51.7174 30.256C47.7134 30.256 45.4254 34.624 45.4254 42.32C45.4254 50.068 47.7134 54.384 51.7174 54.384Z" fill="#E9113C"/>
<g clip-path="url(#clip0_786_298)">
<path fill-rule="evenodd" clip-rule="evenodd" d="M41.1119 128.009L16.3713 103.269V103.27C16.2532 103.153 16.1596 103.013 16.0958 102.858C16.0321 102.704 15.9995 102.539 16 102.372C16 102.021 16.1414 101.706 16.3721 101.475L27.8528 89.9948C27.9703 89.8766 28.1101 89.7829 28.264 89.7191C28.418 89.6552 28.5831 89.6224 28.7498 89.6227C29.1008 89.6227 29.4168 89.7649 29.6468 89.9948L41.1119 101.475C41.3329 101.696 41.636 101.835 41.9716 101.843L42.0528 101.833H42.0561C42.3754 101.823 42.6789 101.691 42.9051 101.466L54.3533 90.0176C54.4709 89.8995 54.6107 89.806 54.7646 89.7422C54.9186 89.6785 55.0836 89.6459 55.2503 89.6462C55.6013 89.6462 55.9165 89.7876 56.1473 90.0176L67.6279 101.491C67.7462 101.608 67.8401 101.748 67.9042 101.902C67.9683 102.056 68.0013 102.221 68.0013 102.388C68.0013 102.555 67.9683 102.72 67.9042 102.874C67.8401 103.028 67.7462 103.168 67.6279 103.286L42.9051 128.009V128.008C42.6858 128.225 42.3876 128.363 42.0553 128.375L42.0577 128.376C42.0469 128.377 42.036 128.377 42.0252 128.377H42.0016C41.6547 128.377 41.3394 128.237 41.1119 128.009Z" fill="#E9113C"/>
</g>
<defs>
<filter id="filter0_d_786_298" x="0" y="0" width="126" height="196" filterUnits="userSpaceOnUse" color-interpolation-filters="sRGB">
<feFlood flood-opacity="0" result="BackgroundImageFix"/>
<feColorMatrix in="SourceAlpha" type="matrix" values="0 0 0 0 0 0 0 0 0 0 0 0 0 0 0 0 0 0 127 0" result="hardAlpha"/>
<feOffset/>
<feGaussianBlur stdDeviation="1.5"/>
<feComposite in2="hardAlpha" operator="out"/>
<feColorMatrix type="matrix" values="0 0 0 0 0 0 0 0 0 0 0 0 0 0 0 0 0 0 0.3 0"/>
<feBlend mode="normal" in2="BackgroundImageFix" result="effect1_dropShadow_786_298"/>
<feBlend mode="normal" in="SourceGraphic" in2="effect1_dropShadow_786_298" result="shape"/>
</filter>
<clipPath id="clip0_786_298">
<rect width="52" height="52" fill="white" transform="translate(16 83)"/>
</clipPath>
</defs>
</svg>
