<svg width="126" height="196" viewBox="0 0 126 196" fill="none" xmlns="http://www.w3.org/2000/svg">
<g filter="url(#filter0_d_786_278)">
<rect x="3" y="3" width="120" height="190" rx="6" fill="white"/>
</g>
<path d="M25.884 60C25.104 60 24.688 59.324 25 58.648L41.172 23.652C41.328 23.34 41.588 23.08 42.056 23.08H42.576C43.096 23.08 43.304 23.34 43.46 23.652L59.476 58.648C59.788 59.324 59.372 60 58.592 60H54.068C53.288 60 52.924 59.688 52.56 58.96L50.012 53.344H34.464L31.916 58.96C31.708 59.48 31.24 60 30.408 60H25.884ZM37.012 47.572H47.464L42.264 36.132H42.108L37.012 47.572Z" fill="#E9113C"/>
<g clip-path="url(#clip0_786_278)">
<path fill-rule="evenodd" clip-rule="evenodd" d="M41.1119 128.009L16.3713 103.269V103.27C16.2532 103.153 16.1596 103.013 16.0958 102.858C16.0321 102.704 15.9995 102.539 16 102.372C16 102.021 16.1414 101.706 16.3721 101.475L27.8528 89.9948C27.9703 89.8766 28.1101 89.7829 28.264 89.7191C28.418 89.6552 28.5831 89.6224 28.7498 89.6227C29.1008 89.6227 29.4168 89.7649 29.6468 89.9948L41.1119 101.475C41.3329 101.696 41.636 101.835 41.9716 101.843L42.0528 101.833H42.0561C42.3754 101.823 42.6789 101.691 42.9051 101.466L54.3533 90.0176C54.4709 89.8995 54.6107 89.806 54.7646 89.7422C54.9186 89.6785 55.0836 89.6459 55.2503 89.6462C55.6013 89.6462 55.9165 89.7876 56.1473 90.0176L67.6279 101.491C67.7462 101.608 67.8401 101.748 67.9042 101.902C67.9683 102.056 68.0013 102.221 68.0013 102.388C68.0013 102.555 67.9683 102.72 67.9042 102.874C67.8401 103.028 67.7462 103.168 67.6279 103.286L42.9051 128.009V128.008C42.6858 128.225 42.3876 128.363 42.0553 128.375L42.0577 128.376C42.0469 128.377 42.036 128.377 42.0252 128.377H42.0016C41.6547 128.377 41.3394 128.237 41.1119 128.009Z" fill="#E9113C"/>
</g>
<defs>
<filter id="filter0_d_786_278" x="0" y="0" width="126" height="196" filterUnits="userSpaceOnUse" color-interpolation-filters="sRGB">
<feFlood flood-opacity="0" result="BackgroundImageFix"/>
<feColorMatrix in="SourceAlpha" type="matrix" values="0 0 0 0 0 0 0 0 0 0 0 0 0 0 0 0 0 0 127 0" result="hardAlpha"/>
<feOffset/>
<feGaussianBlur stdDeviation="1.5"/>
<feComposite in2="hardAlpha" operator="out"/>
<feColorMatrix type="matrix" values="0 0 0 0 0 0 0 0 0 0 0 0 0 0 0 0 0 0 0.3 0"/>
<feBlend mode="normal" in2="BackgroundImageFix" result="effect1_dropShadow_786_278"/>
<feBlend mode="normal" in="SourceGraphic" in2="effect1_dropShadow_786_278" result="shape"/>
</filter>
<clipPath id="clip0_786_278">
<rect width="52" height="52" fill="white" transform="translate(16 83)"/>
</clipPath>
</defs>
</svg>
