<svg width="126" height="196" viewBox="0 0 126 196" fill="none" xmlns="http://www.w3.org/2000/svg">
<g filter="url(#filter0_d_786_113)">
<rect x="3" y="3" width="120" height="190" rx="6" fill="white"/>
</g>
<path d="M32.1623 59.012V58.44L45.6823 30.256H31.9543C31.4343 30.256 30.9663 29.788 30.9663 29.268V25.628C30.9663 25.108 31.4343 24.64 31.9543 24.64H53.5863C54.1063 24.64 54.5743 25.108 54.5743 25.628V25.992L39.0783 58.596C38.7143 59.428 38.1943 60 37.3103 60H33.4623C32.8382 60 32.1623 59.844 32.1623 59.012Z" fill="#1A2C38"/>
<g clip-path="url(#clip0_786_113)">
<path d="M27.3929 124.192L16.3234 112.606C16.1146 112.383 15.9989 112.089 16 111.784C16 111.463 16.1235 111.174 16.3234 110.962L27.3929 99.3694C27.5952 99.1606 27.8723 99.0306 28.1786 99.0306C28.4857 99.0306 28.7619 99.1606 28.9643 99.3694L40.0346 110.962C40.2336 111.173 40.3571 111.463 40.3571 111.784C40.3571 112.106 40.2336 112.395 40.0346 112.607L28.9651 124.192C28.7619 124.401 28.4857 124.53 28.1786 124.53C27.8714 124.53 27.5952 124.4 27.3929 124.192ZM55.0358 124.192L43.9581 112.606C43.7493 112.383 43.6336 112.089 43.6348 111.784C43.6348 111.463 43.7583 111.173 43.9581 110.961L55.0349 99.3686C55.2364 99.1598 55.5135 99.0298 55.8206 99.0298C56.1278 99.0298 56.404 99.1598 56.6063 99.3686L67.6758 110.961C67.8757 111.173 67.9992 111.463 67.9992 111.784C67.9992 112.105 67.8757 112.395 67.6758 112.607L56.6071 124.192C56.4048 124.401 56.1278 124.53 55.8214 124.53C55.5143 124.53 55.2381 124.4 55.0358 124.192ZM52.1896 133.375H52.1977C52.7543 133.375 53.2044 132.904 53.2044 132.322C53.2044 132.029 53.0906 131.765 52.9062 131.575L42.7077 120.909C42.6164 120.813 42.5067 120.736 42.3851 120.684C42.2634 120.632 42.1324 120.604 42 120.604H41.9675L38.2097 133.375H52.1896ZM42.7824 109.784L53.8519 98.2059C54.0609 97.9833 54.1766 97.689 54.1753 97.3837C54.1768 97.0781 54.0611 96.7835 53.8519 96.5606L42.7824 84.9679C42.6814 84.86 42.5594 84.7739 42.4238 84.715C42.2883 84.656 42.1421 84.6254 41.9943 84.625H41.9699L37.5394 96.1861L41.9716 110.125H41.9959C42.3047 110.125 42.5809 109.995 42.7824 109.784Z" fill="#1A2C38"/>
<path d="M41.2102 84.9695L30.1407 96.5549C29.9417 96.7662 29.8182 97.0554 29.8182 97.3772C29.8182 97.6989 29.9417 97.9882 30.1407 98.1994L41.2102 109.786C41.4052 109.991 41.6717 110.12 41.9691 110.128L41.9699 84.625C41.8268 84.6292 41.6859 84.6619 41.5555 84.721C41.4251 84.7801 41.3077 84.8646 41.2102 84.9695ZM31.0946 131.575C30.9094 131.765 30.7956 132.029 30.7956 132.322C30.7956 132.905 31.2457 133.375 31.8015 133.375H41.9699L41.9683 120.604C41.7002 120.611 41.4605 120.726 41.285 120.909L31.093 131.575H31.0946Z" fill="#1A2C38"/>
</g>
<defs>
<filter id="filter0_d_786_113" x="0" y="0" width="126" height="196" filterUnits="userSpaceOnUse" color-interpolation-filters="sRGB">
<feFlood flood-opacity="0" result="BackgroundImageFix"/>
<feColorMatrix in="SourceAlpha" type="matrix" values="0 0 0 0 0 0 0 0 0 0 0 0 0 0 0 0 0 0 127 0" result="hardAlpha"/>
<feOffset/>
<feGaussianBlur stdDeviation="1.5"/>
<feComposite in2="hardAlpha" operator="out"/>
<feColorMatrix type="matrix" values="0 0 0 0 0 0 0 0 0 0 0 0 0 0 0 0 0 0 0.3 0"/>
<feBlend mode="normal" in2="BackgroundImageFix" result="effect1_dropShadow_786_113"/>
<feBlend mode="normal" in="SourceGraphic" in2="effect1_dropShadow_786_113" result="shape"/>
</filter>
<clipPath id="clip0_786_113">
<rect width="52" height="52" fill="white" transform="translate(16 83)"/>
</clipPath>
</defs>
</svg>
