<svg width="126" height="196" viewBox="0 0 126 196" fill="none" xmlns="http://www.w3.org/2000/svg">
<g filter="url(#filter0_d_786_186)">
<rect x="3" y="3" width="120" height="190" rx="6" fill="white"/>
</g>
<g clip-path="url(#clip0_786_186)">
<path fill-rule="evenodd" clip-rule="evenodd" d="M67.3955 107.884L42.8791 83.3672C42.7565 83.2435 42.6092 83.147 42.4468 83.084C42.2844 83.021 42.1106 82.9929 41.9366 83.0016H41.9391V83.0032C41.623 83.0139 41.3228 83.1446 41.0998 83.3689V83.3672L16.6013 107.866C16.4851 107.982 16.393 108.12 16.3303 108.272C16.2676 108.424 16.2354 108.587 16.2356 108.751C16.2356 109.097 16.3754 109.409 16.6013 109.637L27.9779 121.014C28.2054 121.239 28.5174 121.379 28.8635 121.379C29.2096 121.379 29.5216 121.239 29.7491 121.014L41.0998 109.663C41.3226 109.439 41.6224 109.308 41.9383 109.297H41.9399C41.9556 109.298 41.9713 109.297 41.987 109.296C42.3315 109.296 42.6451 109.435 42.871 109.663L54.2476 121.04C54.4751 121.265 54.7871 121.405 55.1333 121.405C55.4794 121.405 55.7914 121.265 56.0189 121.04L67.3955 109.663C67.6246 109.435 67.7636 109.12 67.7636 108.772C67.7636 108.425 67.623 108.109 67.3955 107.882V107.884ZM53.1012 135H30.7753C30.6174 135 30.4631 134.953 30.3319 134.865C30.2007 134.777 30.0985 134.652 30.0383 134.506C29.9781 134.36 29.9626 134.2 29.9937 134.045C30.0248 133.89 30.1011 133.748 30.2131 133.637L41.3736 122.476H41.3719C41.5219 122.327 41.7246 122.244 41.9358 122.244H41.9374V122.283L41.9456 122.244C42.1633 122.245 42.3599 122.333 42.5029 122.476L53.6634 133.637C53.7754 133.748 53.8517 133.89 53.8828 134.045C53.9139 134.2 53.8984 134.36 53.8382 134.506C53.778 134.652 53.6758 134.777 53.5446 134.865C53.4134 134.953 53.2591 135 53.1012 135Z" fill="#1A2C38"/>
</g>
<path d="M25.884 60C25.104 60 24.688 59.324 25 58.648L41.172 23.652C41.328 23.34 41.588 23.08 42.056 23.08H42.576C43.096 23.08 43.304 23.34 43.46 23.652L59.476 58.648C59.788 59.324 59.372 60 58.592 60H54.068C53.288 60 52.924 59.688 52.56 58.96L50.012 53.344H34.464L31.916 58.96C31.708 59.48 31.24 60 30.408 60H25.884ZM37.012 47.572H47.464L42.264 36.132H42.108L37.012 47.572Z" fill="#1A2C38"/>
<defs>
<filter id="filter0_d_786_186" x="0" y="0" width="126" height="196" filterUnits="userSpaceOnUse" color-interpolation-filters="sRGB">
<feFlood flood-opacity="0" result="BackgroundImageFix"/>
<feColorMatrix in="SourceAlpha" type="matrix" values="0 0 0 0 0 0 0 0 0 0 0 0 0 0 0 0 0 0 127 0" result="hardAlpha"/>
<feOffset/>
<feGaussianBlur stdDeviation="1.5"/>
<feComposite in2="hardAlpha" operator="out"/>
<feColorMatrix type="matrix" values="0 0 0 0 0 0 0 0 0 0 0 0 0 0 0 0 0 0 0.3 0"/>
<feBlend mode="normal" in2="BackgroundImageFix" result="effect1_dropShadow_786_186"/>
<feBlend mode="normal" in="SourceGraphic" in2="effect1_dropShadow_786_186" result="shape"/>
</filter>
<clipPath id="clip0_786_186">
<rect width="52" height="52" fill="white" transform="translate(16 83)"/>
</clipPath>
</defs>
</svg>
