<svg width="126" height="196" viewBox="0 0 126 196" fill="none" xmlns="http://www.w3.org/2000/svg">
<g filter="url(#filter0_d_786_241)">
<rect x="3" y="3" width="120" height="190" rx="6" fill="white"/>
</g>
<g clip-path="url(#clip0_786_241)">
<path fill-rule="evenodd" clip-rule="evenodd" d="M67.3955 107.884L42.8791 83.3672C42.7565 83.2435 42.6092 83.147 42.4468 83.084C42.2844 83.021 42.1106 82.9929 41.9366 83.0016H41.939V83.0032C41.6229 83.0139 41.3228 83.1446 41.0997 83.3689V83.3672L16.6012 107.866C16.4851 107.982 16.393 108.12 16.3303 108.272C16.2675 108.424 16.2354 108.587 16.2356 108.751C16.2356 109.097 16.3753 109.409 16.6012 109.637L27.9778 121.014C28.2053 121.239 28.5173 121.379 28.8635 121.379C29.2096 121.379 29.5216 121.239 29.7491 121.014L41.0997 109.663C41.3226 109.439 41.6224 109.308 41.9382 109.297H41.9398C41.9556 109.298 41.9713 109.297 41.987 109.296C42.3315 109.296 42.6451 109.435 42.871 109.663L54.2476 121.04C54.4751 121.265 54.7871 121.405 55.1332 121.405C55.4794 121.405 55.7913 121.265 56.0188 121.04L67.3955 109.663C67.6246 109.435 67.7635 109.12 67.7635 108.772C67.7635 108.425 67.623 108.109 67.3955 107.882V107.884ZM53.1012 135H30.7753C30.6174 135 30.463 134.953 30.3319 134.865C30.2007 134.777 30.0985 134.652 30.0383 134.506C29.9781 134.36 29.9625 134.2 29.9937 134.045C30.0248 133.89 30.1011 133.748 30.213 133.637L41.3735 122.476H41.3719C41.5219 122.327 41.7245 122.244 41.9358 122.244H41.9374V122.283L41.9455 122.244C42.1633 122.245 42.3599 122.333 42.5029 122.476L53.6634 133.637C53.7753 133.748 53.8517 133.89 53.8828 134.045C53.9139 134.2 53.8984 134.36 53.8382 134.506C53.778 134.652 53.6758 134.777 53.5446 134.865C53.4134 134.953 53.2591 135 53.1012 135Z" fill="#1A2C38"/>
</g>
<path d="M30.288 55.892C29.976 55.528 30.028 54.956 30.34 54.592L32.992 52.044C33.46 51.628 33.928 51.628 34.344 52.044C34.5 52.252 37.568 54.852 40.74 54.852C43.548 54.852 46.252 52.824 46.252 49.964C46.252 47.26 43.756 44.816 39.076 44.816H36.164C35.592 44.816 35.176 44.4 35.176 43.776V40.5C35.176 39.824 35.54 39.46 36.164 39.46H39.076C43.34 39.46 45.524 37.328 45.524 34.676C45.524 31.816 43.132 29.892 40.48 29.892C37.776 29.892 36.112 31.348 35.228 32.388C34.864 32.804 34.292 32.856 33.824 32.44L31.276 30.048C30.86 29.684 30.912 29.06 31.276 28.696C31.276 28.696 35.228 24.12 41.052 24.12C47.084 24.12 52.128 27.812 52.128 33.636C52.128 37.64 49.112 40.656 46.772 41.748V41.904C49.216 42.944 53.064 45.752 53.064 50.38C53.064 56.256 48.28 60.52 41.104 60.52C34.604 60.52 31.432 57.244 30.288 55.892Z" fill="#1A2C38"/>
<defs>
<filter id="filter0_d_786_241" x="0" y="0" width="126" height="196" filterUnits="userSpaceOnUse" color-interpolation-filters="sRGB">
<feFlood flood-opacity="0" result="BackgroundImageFix"/>
<feColorMatrix in="SourceAlpha" type="matrix" values="0 0 0 0 0 0 0 0 0 0 0 0 0 0 0 0 0 0 127 0" result="hardAlpha"/>
<feOffset/>
<feGaussianBlur stdDeviation="1.5"/>
<feComposite in2="hardAlpha" operator="out"/>
<feColorMatrix type="matrix" values="0 0 0 0 0 0 0 0 0 0 0 0 0 0 0 0 0 0 0.3 0"/>
<feBlend mode="normal" in2="BackgroundImageFix" result="effect1_dropShadow_786_241"/>
<feBlend mode="normal" in="SourceGraphic" in2="effect1_dropShadow_786_241" result="shape"/>
</filter>
<clipPath id="clip0_786_241">
<rect width="52" height="52" fill="white" transform="translate(16 83)"/>
</clipPath>
</defs>
</svg>
