<svg width="126" height="196" viewBox="0 0 126 196" fill="none" xmlns="http://www.w3.org/2000/svg">
<g filter="url(#filter0_d_786_216)">
<rect x="3" y="3" width="120" height="190" rx="6" fill="white"/>
</g>
<g clip-path="url(#clip0_786_216)">
<path fill-rule="evenodd" clip-rule="evenodd" d="M67.3955 107.884L42.8791 83.3672C42.7565 83.2435 42.6092 83.147 42.4468 83.084C42.2844 83.021 42.1106 82.9929 41.9366 83.0016H41.9391V83.0032C41.623 83.0139 41.3228 83.1446 41.0998 83.3689V83.3672L16.6013 107.866C16.4851 107.982 16.393 108.12 16.3303 108.272C16.2676 108.424 16.2354 108.587 16.2356 108.751C16.2356 109.097 16.3754 109.409 16.6013 109.637L27.9779 121.014C28.2054 121.239 28.5174 121.379 28.8635 121.379C29.2096 121.379 29.5216 121.239 29.7491 121.014L41.0998 109.663C41.3226 109.439 41.6224 109.308 41.9383 109.297H41.9399C41.9556 109.298 41.9713 109.297 41.987 109.296C42.3315 109.296 42.6451 109.435 42.871 109.663L54.2476 121.04C54.4751 121.265 54.7871 121.405 55.1333 121.405C55.4794 121.405 55.7914 121.265 56.0189 121.04L67.3955 109.663C67.6246 109.435 67.7636 109.12 67.7636 108.772C67.7636 108.425 67.623 108.109 67.3955 107.882V107.884ZM53.1012 135H30.7753C30.6174 135 30.4631 134.953 30.3319 134.865C30.2007 134.777 30.0985 134.652 30.0383 134.506C29.9781 134.36 29.9626 134.2 29.9937 134.045C30.0248 133.89 30.1011 133.748 30.2131 133.637L41.3736 122.476H41.3719C41.5219 122.327 41.7246 122.244 41.9358 122.244H41.9374V122.283L41.9456 122.244C42.1633 122.245 42.3599 122.333 42.5029 122.476L53.6634 133.637C53.7754 133.748 53.8517 133.89 53.8828 134.045C53.9139 134.2 53.8984 134.36 53.8382 134.506C53.778 134.652 53.6758 134.777 53.5446 134.865C53.4134 134.953 53.2591 135 53.1012 135Z" fill="#1A2C38"/>
</g>
<path d="M29.692 50.536C29.692 46.012 34.528 42.58 35.984 41.852V41.696C33.852 40.552 30.628 37.692 30.628 33.636C30.628 27.864 35.62 24.12 41.912 24.12C48.412 24.12 53.404 27.864 53.404 33.636C53.404 37.588 50.18 40.396 48.048 41.644V41.852C50.388 43.048 54.34 46.064 54.34 50.536C54.34 56.204 49.556 60.52 41.912 60.52C34.476 60.52 29.692 56.204 29.692 50.536ZM42.016 38.836C45.24 38.108 46.748 36.132 46.748 33.896C46.748 31.4 44.616 29.476 41.912 29.476C39.416 29.476 37.284 31.4 37.284 33.896C37.284 36.236 38.74 38.056 42.016 38.836ZM36.608 50.432C36.608 53.292 39.208 55.216 42.016 55.216C44.876 55.216 47.424 53.292 47.424 50.432C47.424 48.092 45.5 45.7 42.016 44.92C38.532 45.7 36.608 48.092 36.608 50.432Z" fill="#1A2C38"/>
<defs>
<filter id="filter0_d_786_216" x="0" y="0" width="126" height="196" filterUnits="userSpaceOnUse" color-interpolation-filters="sRGB">
<feFlood flood-opacity="0" result="BackgroundImageFix"/>
<feColorMatrix in="SourceAlpha" type="matrix" values="0 0 0 0 0 0 0 0 0 0 0 0 0 0 0 0 0 0 127 0" result="hardAlpha"/>
<feOffset/>
<feGaussianBlur stdDeviation="1.5"/>
<feComposite in2="hardAlpha" operator="out"/>
<feColorMatrix type="matrix" values="0 0 0 0 0 0 0 0 0 0 0 0 0 0 0 0 0 0 0.3 0"/>
<feBlend mode="normal" in2="BackgroundImageFix" result="effect1_dropShadow_786_216"/>
<feBlend mode="normal" in="SourceGraphic" in2="effect1_dropShadow_786_216" result="shape"/>
</filter>
<clipPath id="clip0_786_216">
<rect width="52" height="52" fill="white" transform="translate(16 83)"/>
</clipPath>
</defs>
</svg>
