<svg width="126" height="196" viewBox="0 0 126 196" fill="none" xmlns="http://www.w3.org/2000/svg">
<g filter="url(#filter0_d_786_211)">
<rect x="3" y="3" width="120" height="190" rx="6" fill="white"/>
</g>
<g clip-path="url(#clip0_786_211)">
<path fill-rule="evenodd" clip-rule="evenodd" d="M67.3955 107.884L42.8791 83.3672C42.7565 83.2435 42.6092 83.147 42.4468 83.084C42.2844 83.021 42.1106 82.9929 41.9366 83.0016H41.9391V83.0032C41.623 83.0139 41.3228 83.1446 41.0998 83.3689V83.3672L16.6013 107.866C16.4851 107.982 16.393 108.12 16.3303 108.272C16.2676 108.424 16.2354 108.587 16.2356 108.751C16.2356 109.097 16.3754 109.409 16.6013 109.637L27.9779 121.014C28.2054 121.239 28.5174 121.379 28.8635 121.379C29.2096 121.379 29.5216 121.239 29.7491 121.014L41.0998 109.663C41.3226 109.439 41.6224 109.308 41.9383 109.297H41.9399C41.9556 109.298 41.9713 109.297 41.987 109.296C42.3315 109.296 42.6451 109.435 42.871 109.663L54.2476 121.04C54.4751 121.265 54.7871 121.405 55.1333 121.405C55.4794 121.405 55.7914 121.265 56.0189 121.04L67.3955 109.663C67.6246 109.435 67.7636 109.12 67.7636 108.772C67.7636 108.425 67.623 108.109 67.3955 107.882V107.884ZM53.1012 135H30.7753C30.6174 135 30.4631 134.953 30.3319 134.865C30.2007 134.777 30.0985 134.652 30.0383 134.506C29.9781 134.36 29.9626 134.2 29.9937 134.045C30.0248 133.89 30.1011 133.748 30.2131 133.637L41.3736 122.476H41.3719C41.5219 122.327 41.7246 122.244 41.9358 122.244H41.9374V122.283L41.9456 122.244C42.1633 122.245 42.3599 122.333 42.5029 122.476L53.6634 133.637C53.7754 133.748 53.8517 133.89 53.8828 134.045C53.9139 134.2 53.8984 134.36 53.8382 134.506C53.778 134.652 53.6758 134.777 53.5446 134.865C53.4134 134.953 53.2591 135 53.1012 135Z" fill="#1A2C38"/>
</g>
<path d="M34.3084 57.036C34.0484 56.412 34.2564 55.84 35.2444 55.528C37.6884 54.748 45.0724 51.264 46.6844 45.544C45.8004 46.064 43.2004 47 40.7564 47C35.5564 47 30.1484 43.152 30.1484 35.716C30.1484 29.164 35.5044 23.808 41.9004 23.808C50.0644 23.808 54.2764 30.36 54.2764 38.16C54.2764 53.344 41.4324 59.376 36.9604 60.832C36.2324 61.04 35.7124 60.78 35.5044 60.104L34.3084 57.036ZM42.0044 41.904C45.4364 41.904 47.4644 39.252 48.0364 37.38C48.0364 33.844 46.1644 29.736 41.9524 29.736C38.6764 29.736 36.0244 32.544 36.0244 35.82C36.0244 39.148 38.6764 41.904 42.0044 41.904Z" fill="#1A2C38"/>
<defs>
<filter id="filter0_d_786_211" x="0" y="0" width="126" height="196" filterUnits="userSpaceOnUse" color-interpolation-filters="sRGB">
<feFlood flood-opacity="0" result="BackgroundImageFix"/>
<feColorMatrix in="SourceAlpha" type="matrix" values="0 0 0 0 0 0 0 0 0 0 0 0 0 0 0 0 0 0 127 0" result="hardAlpha"/>
<feOffset/>
<feGaussianBlur stdDeviation="1.5"/>
<feComposite in2="hardAlpha" operator="out"/>
<feColorMatrix type="matrix" values="0 0 0 0 0 0 0 0 0 0 0 0 0 0 0 0 0 0 0.3 0"/>
<feBlend mode="normal" in2="BackgroundImageFix" result="effect1_dropShadow_786_211"/>
<feBlend mode="normal" in="SourceGraphic" in2="effect1_dropShadow_786_211" result="shape"/>
</filter>
<clipPath id="clip0_786_211">
<rect width="52" height="52" fill="white" transform="translate(16 83)"/>
</clipPath>
</defs>
</svg>
