<svg width="126" height="196" viewBox="0 0 126 196" fill="none" xmlns="http://www.w3.org/2000/svg">
<g filter="url(#filter0_d_786_236)">
<rect x="3" y="3" width="120" height="190" rx="6" fill="white"/>
</g>
<g clip-path="url(#clip0_786_236)">
<path fill-rule="evenodd" clip-rule="evenodd" d="M67.3955 107.884L42.8791 83.3672C42.7565 83.2435 42.6092 83.147 42.4468 83.084C42.2844 83.021 42.1106 82.9929 41.9366 83.0016H41.939V83.0032C41.6229 83.0139 41.3228 83.1446 41.0997 83.3689V83.3672L16.6012 107.866C16.4851 107.982 16.393 108.12 16.3303 108.272C16.2675 108.424 16.2354 108.587 16.2356 108.751C16.2356 109.097 16.3753 109.409 16.6012 109.637L27.9778 121.014C28.2053 121.239 28.5173 121.379 28.8635 121.379C29.2096 121.379 29.5216 121.239 29.7491 121.014L41.0997 109.663C41.3226 109.439 41.6224 109.308 41.9382 109.297H41.9398C41.9556 109.298 41.9713 109.297 41.987 109.296C42.3315 109.296 42.6451 109.435 42.871 109.663L54.2476 121.04C54.4751 121.265 54.7871 121.405 55.1332 121.405C55.4794 121.405 55.7913 121.265 56.0188 121.04L67.3955 109.663C67.6246 109.435 67.7635 109.12 67.7635 108.772C67.7635 108.425 67.623 108.109 67.3955 107.882V107.884ZM53.1012 135H30.7753C30.6174 135 30.463 134.953 30.3319 134.865C30.2007 134.777 30.0985 134.652 30.0383 134.506C29.9781 134.36 29.9625 134.2 29.9937 134.045C30.0248 133.89 30.1011 133.748 30.213 133.637L41.3735 122.476H41.3719C41.5219 122.327 41.7245 122.244 41.9358 122.244H41.9374V122.283L41.9455 122.244C42.1633 122.245 42.3599 122.333 42.5029 122.476L53.6634 133.637C53.7753 133.748 53.8517 133.89 53.8828 134.045C53.9139 134.2 53.8984 134.36 53.8382 134.506C53.778 134.652 53.6758 134.777 53.5446 134.865C53.4134 134.953 53.2591 135 53.1012 135Z" fill="#1A2C38"/>
</g>
<path d="M28.3063 52.46C27.7343 52.46 27.3183 51.992 27.3183 51.472V47.156L46.0383 24.38C46.1943 24.224 46.4543 24.068 46.8183 24.068H49.6263C50.1463 24.068 50.6143 24.484 50.6143 25.056V47.208H54.7743C55.3463 47.208 55.7623 47.624 55.7623 48.144V51.368C55.7623 51.888 55.3463 52.356 54.7743 52.356H50.6143L50.6663 59.012C50.6663 59.532 50.1983 60 49.6783 60H45.3623C44.8423 60 44.3743 59.532 44.3743 59.012V52.46H28.3063ZM34.1823 47.052H44.5823V34.572L34.1823 47.052Z" fill="#1A2C38"/>
<defs>
<filter id="filter0_d_786_236" x="0" y="0" width="126" height="196" filterUnits="userSpaceOnUse" color-interpolation-filters="sRGB">
<feFlood flood-opacity="0" result="BackgroundImageFix"/>
<feColorMatrix in="SourceAlpha" type="matrix" values="0 0 0 0 0 0 0 0 0 0 0 0 0 0 0 0 0 0 127 0" result="hardAlpha"/>
<feOffset/>
<feGaussianBlur stdDeviation="1.5"/>
<feComposite in2="hardAlpha" operator="out"/>
<feColorMatrix type="matrix" values="0 0 0 0 0 0 0 0 0 0 0 0 0 0 0 0 0 0 0.3 0"/>
<feBlend mode="normal" in2="BackgroundImageFix" result="effect1_dropShadow_786_236"/>
<feBlend mode="normal" in="SourceGraphic" in2="effect1_dropShadow_786_236" result="shape"/>
</filter>
<clipPath id="clip0_786_236">
<rect width="52" height="52" fill="white" transform="translate(16 83)"/>
</clipPath>
</defs>
</svg>
