<svg width="126" height="196" viewBox="0 0 126 196" fill="none" xmlns="http://www.w3.org/2000/svg">
<g filter="url(#filter0_d_786_206)">
<rect x="3" y="3" width="120" height="190" rx="6" fill="white"/>
</g>
<g clip-path="url(#clip0_786_206)">
<path fill-rule="evenodd" clip-rule="evenodd" d="M67.3955 107.884L42.8791 83.3672C42.7565 83.2435 42.6092 83.147 42.4468 83.084C42.2844 83.021 42.1106 82.9929 41.9366 83.0016H41.9391V83.0032C41.623 83.0139 41.3228 83.1446 41.0998 83.3689V83.3672L16.6013 107.866C16.4851 107.982 16.393 108.12 16.3303 108.272C16.2676 108.424 16.2354 108.587 16.2356 108.751C16.2356 109.097 16.3754 109.409 16.6013 109.637L27.9779 121.014C28.2054 121.239 28.5174 121.379 28.8635 121.379C29.2096 121.379 29.5216 121.239 29.7491 121.014L41.0998 109.663C41.3226 109.439 41.6224 109.308 41.9383 109.297H41.9399C41.9556 109.298 41.9713 109.297 41.987 109.296C42.3315 109.296 42.6451 109.435 42.871 109.663L54.2476 121.04C54.4751 121.265 54.7871 121.405 55.1333 121.405C55.4794 121.405 55.7914 121.265 56.0189 121.04L67.3955 109.663C67.6246 109.435 67.7636 109.12 67.7636 108.772C67.7636 108.425 67.623 108.109 67.3955 107.882V107.884ZM53.1012 135H30.7753C30.6174 135 30.4631 134.953 30.3319 134.865C30.2007 134.777 30.0985 134.652 30.0383 134.506C29.9781 134.36 29.9626 134.2 29.9937 134.045C30.0248 133.89 30.1011 133.748 30.2131 133.637L41.3736 122.476H41.3719C41.5219 122.327 41.7246 122.244 41.9358 122.244H41.9374V122.283L41.9456 122.244C42.1633 122.245 42.3599 122.333 42.5029 122.476L53.6634 133.637C53.7754 133.748 53.8517 133.89 53.8828 134.045C53.9139 134.2 53.8984 134.36 53.8382 134.506C53.778 134.652 53.6758 134.777 53.5446 134.865C53.4134 134.953 53.2591 135 53.1012 135Z" fill="#1A2C38"/>
</g>
<path d="M24.3398 59.012V34.104L19.7638 35.092C19.2958 35.196 18.7758 34.884 18.7238 34.416L18.4118 31.868C18.3598 31.452 18.4638 31.14 18.6718 30.932L26.1598 24.64H29.7998C30.3198 24.64 30.7358 25.108 30.7358 25.628V59.012C30.7358 59.532 30.3198 60 29.7998 60H25.3278C24.7558 60 24.3398 59.532 24.3398 59.012ZM51.7174 60.52C43.3974 60.52 38.6134 53.708 38.6134 42.32C38.6134 30.932 43.3974 24.12 51.7174 24.12C60.0374 24.12 64.8214 30.932 64.8214 42.32C64.8214 53.708 60.0374 60.52 51.7174 60.52ZM51.7174 54.384C55.7214 54.384 58.0094 50.068 58.0094 42.32C58.0094 34.624 55.7214 30.256 51.7174 30.256C47.7134 30.256 45.4254 34.624 45.4254 42.32C45.4254 50.068 47.7134 54.384 51.7174 54.384Z" fill="#1A2C38"/>
<defs>
<filter id="filter0_d_786_206" x="0" y="0" width="126" height="196" filterUnits="userSpaceOnUse" color-interpolation-filters="sRGB">
<feFlood flood-opacity="0" result="BackgroundImageFix"/>
<feColorMatrix in="SourceAlpha" type="matrix" values="0 0 0 0 0 0 0 0 0 0 0 0 0 0 0 0 0 0 127 0" result="hardAlpha"/>
<feOffset/>
<feGaussianBlur stdDeviation="1.5"/>
<feComposite in2="hardAlpha" operator="out"/>
<feColorMatrix type="matrix" values="0 0 0 0 0 0 0 0 0 0 0 0 0 0 0 0 0 0 0.3 0"/>
<feBlend mode="normal" in2="BackgroundImageFix" result="effect1_dropShadow_786_206"/>
<feBlend mode="normal" in="SourceGraphic" in2="effect1_dropShadow_786_206" result="shape"/>
</filter>
<clipPath id="clip0_786_206">
<rect width="52" height="52" fill="white" transform="translate(16 83)"/>
</clipPath>
</defs>
</svg>
