<svg width="16" height="16" viewBox="0 0 16 16" fill="none" xmlns="http://www.w3.org/2000/svg">
    <path fill-rule="evenodd" clip-rule="evenodd"
        d="M5.7 2.13672H14.8935C14.8935 2.14372 14.9 2.15022 14.9 2.15022H14.896C14.4715 2.17316 14.0713 2.35549 13.7754 2.66074C13.4795 2.966 13.3097 3.3717 13.3 3.79672V12.0567L13.2995 12.0517C13.3148 12.2839 13.2822 12.5167 13.2039 12.7357C13.1255 12.9548 13.003 13.1555 12.844 13.3253C12.685 13.4951 12.4928 13.6304 12.2793 13.723C12.0658 13.8155 11.8357 13.8632 11.603 13.8632C11.3708 13.8632 11.1411 13.8156 10.928 13.7234C10.7149 13.6312 10.5229 13.4962 10.3639 13.327C10.205 13.1577 10.0824 12.9577 10.0037 12.7392C9.92504 12.5207 9.89195 12.2885 9.9065 12.0567V11.2832H4V3.83672C4 3.38585 4.17911 2.95345 4.49792 2.63464C4.81673 2.31583 5.24913 2.13672 5.7 2.13672ZM5.493 9.11022H9.3665V7.95022H5.493V9.11022ZM5.4935 6.01022H11.6935V4.85022H5.4935V6.01022ZM15.0065 2.61672H14.9935C14.73 2.61672 14.4773 2.72139 14.291 2.90771C14.1047 3.09403 14 3.34673 14 3.61022V5.21672H16V3.61022C16 3.47975 15.9743 3.35056 15.9244 3.23002C15.8744 3.10949 15.8013 2.99996 15.709 2.90771C15.6168 2.81545 15.5072 2.74227 15.3867 2.69234C15.2662 2.64242 15.137 2.61672 15.0065 2.61672ZM9.2 12.0642H0C0 12.5151 0.179107 12.9475 0.497918 13.2663C0.81673 13.5851 1.24913 13.7642 1.7 13.7642H10.2065C9.533 13.7642 9.2 13.0042 9.2 12.0642Z"
        fill="#A4B2CD" />
</svg>
    