<svg width="14" height="14" viewBox="0 0 14 14" fill="none" xmlns="http://www.w3.org/2000/svg">
    <g clip-path="url(#clip0_4_4631)">
        <path
            d="M12.1275 7C12.1251 6.70759 12.1003 6.41579 12.0531 6.12719L12.0575 6.16L13.8425 4.8475L12.285 2.1525L10.2609 3.03931C9.83363 2.68982 9.35354 2.41042 8.8386 2.21156L8.80272 2.19931L8.55751 0H5.44251L5.19751 2.19931C4.63882 2.41369 4.15626 2.69719 3.72969 3.04675L3.73888 3.03931L1.71479 2.1525L0.157288 4.8475L1.94229 6.16C1.89752 6.43692 1.87412 6.71687 1.87229 6.99738V7C1.87491 7.29881 1.90029 7.58931 1.94666 7.87281L1.94229 7.84L0.157288 9.1525L1.71479 11.8475L3.7391 10.9607C4.16639 11.3102 4.64647 11.5896 5.16141 11.7884L5.19729 11.8007L5.44229 14H8.55729L8.80229 11.8007C9.36097 11.5863 9.84354 11.3028 10.2701 10.9532L10.2609 10.9607L12.2852 11.8475L13.8427 9.1525L12.0577 7.84C12.0997 7.58931 12.1251 7.29881 12.1277 7.00263V7H12.1275ZM7.00001 8.89569C6.62509 8.8956 6.25862 8.78435 5.94694 8.57599C5.63525 8.36764 5.39234 8.07154 5.24893 7.72515C5.10552 7.37875 5.06804 6.9976 5.14123 6.6299C5.21443 6.2622 5.39501 5.92446 5.66014 5.65939C5.92528 5.39432 6.26306 5.21382 6.63077 5.14071C6.99849 5.0676 7.37963 5.10516 7.72599 5.24865C8.07236 5.39215 8.3684 5.63512 8.57668 5.94686C8.78496 6.25859 8.89613 6.62509 8.89613 7C8.89263 8.04562 8.04607 8.89262 7.00044 8.89569H7.00001Z"
            fill="#B1BAD3" />
    </g>
    <defs>
        <clipPath id="clip0_4_4631">
            <rect width="14" height="14" fill="white" />
        </clipPath>
    </defs>
</svg>