<svg width="14" height="14" viewBox="0 0 14 14" fill="none" xmlns="http://www.w3.org/2000/svg">
    <path
        d="M14.0001 11.3092V8.74528H11.0472C11.0314 8.7444 11.013 8.74396 10.9942 8.74396C10.2886 8.74396 9.7168 9.31826 9.7168 10.027C9.7168 10.7358 10.2886 11.3101 10.9942 11.3101C11.013 11.3101 11.0314 11.3097 11.0498 11.3088H11.0472L14.0001 11.3092ZM11.7274 10.0283C11.7261 10.3513 11.4654 10.6128 11.1434 10.6128C10.821 10.6128 10.5594 10.35 10.5594 10.0262C10.5594 9.70231 10.821 9.43954 11.1434 9.43954C11.4658 9.43954 11.7274 9.70231 11.7274 10.0262C11.7274 10.027 11.7274 10.0275 11.7274 10.0283Z"
        fill="white" />
    <path
        d="M2.28072 4.40826C2.06679 4.40958 1.89355 4.58403 1.89355 4.79934V4.84108C1.89355 5.05595 2.06679 5.22996 2.28072 5.22996H3.79219C3.62595 4.99312 3.47896 4.72244 3.36434 4.43507L3.35472 4.40826H2.28072Z"
        fill="white" />
    <path
        d="M10.8667 4.40826C10.7424 4.72244 10.5955 4.99312 10.4209 5.2427L10.4292 5.22996H12.6866V4.40826H10.8667Z"
        fill="white" />
    <path
        d="M12.0845 3.58423V2.94928H11.1548C11.1518 3.17601 11.1303 3.39528 11.0923 3.60839L11.0958 3.58423H12.0845Z"
        fill="white" />
    <path
        d="M11.0462 7.9212H13.612V7.22254C13.612 7.22166 13.612 7.22122 13.612 7.22034C13.612 6.57661 13.0931 6.05503 12.4527 6.05371H2.21799C1.57578 6.00889 1.07181 5.47413 1.07181 4.82161C1.07181 4.82073 1.07181 4.81941 1.07181 4.81854C1.07094 4.80184 1.07006 4.78207 1.07006 4.76273C1.07006 4.7434 1.0705 4.72362 1.07181 4.70385V4.70649C1.12212 4.07725 1.64228 3.58556 2.27705 3.5838H3.11919C3.08506 3.39441 3.0645 3.17471 3.06231 2.95105V2.94885H1.54428C0.691208 2.95017 0 3.64488 0 4.50216V12.6532C0.00131242 13.3967 0.600651 13.9987 1.34086 14H12.4505C13.0918 14 13.612 13.4775 13.612 12.8334V12.1325H11.0462C11.0261 12.1334 11.0025 12.1338 10.9784 12.1338C9.81997 12.1338 8.88071 11.1904 8.88071 10.0268C8.88071 8.86329 9.81997 7.91988 10.9784 7.91988C11.002 7.91988 11.0261 7.92032 11.0497 7.9212H11.0462Z"
        fill="white" />
    <path
        d="M9.99826 2.90537C9.99826 2.90449 9.99826 2.90317 9.99826 2.90229C9.99826 1.29933 8.70465 0 7.10875 0C5.51285 0 4.21924 1.29933 4.21924 2.90229C4.21924 3.85186 4.67334 4.69508 5.37548 5.22457L5.38292 5.22984H8.83458C9.54417 4.69728 9.99826 3.85581 9.99826 2.90757C9.99826 2.90669 9.99826 2.90537 9.99826 2.90537Z"
        fill="white" />
</svg>
    