<svg width="16" height="16" viewBox="0 0 16 16" fill="none" xmlns="http://www.w3.org/2000/svg">
    <path fill-rule="evenodd" clip-rule="evenodd"
        d="M9.46667 7.84668C8.85691 9.02078 8.5369 10.3237 8.53333 11.6467V12.48H5.38667C5.39317 11.1709 5.6772 9.878 6.22 8.68668C6.79495 7.411 7.5517 6.22535 8.46667 5.16668H3.8V2.72668H12V4.02002C11.0262 5.20508 10.1773 6.48742 9.46667 7.84668ZM13.8667 10.5534C13.3655 11.1881 13.0227 11.9331 12.8667 12.7267L12.7667 13.2267L10 12.72C10.2845 11.2597 11.0726 9.94557 12.2267 9.00668L10.2267 8.61335L11.0667 6.84002L16 7.81335L15.8467 8.58668C15.1239 9.17587 14.4607 9.83458 13.8667 10.5534ZM4.11333 12.1067C3.92011 11.3206 3.92011 10.4994 4.11333 9.71335C4.34123 8.80162 4.66527 7.91667 5.08 7.07335L4.89333 6.30668L0 7.48002V9.42668L2 8.95335C1.33371 10.2911 1.16363 11.8219 1.52 13.2734L4.23333 12.6067L4.11333 12.1067Z"
        fill="#B1BAD3" />
</svg>
    