<svg width="14" height="14" viewBox="0 0 14 14" fill="none" xmlns="http://www.w3.org/2000/svg">
    <path fill-rule="evenodd" clip-rule="evenodd"
        d="M8.3125 1.3125H10.7188C11.1249 1.3125 11.5143 1.47383 11.8015 1.76099C12.0887 2.04816 12.25 2.43764 12.25 2.84375H1.75C1.75 2.43764 1.91133 2.04816 2.19849 1.76099C2.48566 1.47383 2.87514 1.3125 3.28125 1.3125H5.6875C5.6875 0.964403 5.82578 0.630564 6.07192 0.384422C6.31806 0.138281 6.6519 0 7 0C7.3481 0 7.68194 0.138281 7.92808 0.384422C8.17422 0.630564 8.3125 0.964403 8.3125 1.3125ZM12.2303 4.15625L10.9987 14H3.00125L1.76969 4.15625H12.2303ZM9.625 5.46875C9.26275 5.46875 8.96875 5.76275 8.96875 6.125V11.8125C8.97317 11.9836 9.04425 12.1462 9.16684 12.2657C9.28943 12.3852 9.45383 12.452 9.625 12.452C9.79617 12.452 9.96057 12.3852 10.0832 12.2657C10.2058 12.1462 10.2768 11.9836 10.2812 11.8125V6.125C10.2812 5.76275 9.98725 5.46875 9.625 5.46875ZM7 5.46875C6.63775 5.46875 6.34375 5.76275 6.34375 6.125V11.8125C6.34817 11.9836 6.41925 12.1462 6.54184 12.2657C6.66443 12.3852 6.82883 12.452 7 12.452C7.17117 12.452 7.33557 12.3852 7.45816 12.2657C7.58075 12.1462 7.65183 11.9836 7.65625 11.8125V6.125C7.65625 5.76275 7.36225 5.46875 7 5.46875ZM4.375 5.46875C4.01275 5.46875 3.71875 5.76275 3.71875 6.125V11.8125C3.72317 11.9836 3.79425 12.1462 3.91684 12.2657C4.03943 12.3852 4.20383 12.452 4.375 12.452C4.54617 12.452 4.71057 12.3852 4.83316 12.2657C4.95575 12.1462 5.02683 11.9836 5.03125 11.8125V6.125C5.03125 5.76275 4.73725 5.46875 4.375 5.46875Z"
        fill="#B1BAD3" />
</svg>
    