<svg width="14" height="8" viewBox="0 0 14 8" fill="none" xmlns="http://www.w3.org/2000/svg">
    <path
        d="M10.4444 0.433272C8.41291 0.433272 7.41453 1.98049 6.52706 3.35249C5.56959 4.82949 4.89234 5.72287 3.56716 5.72287C3.34173 5.72289 3.11851 5.67851 2.91023 5.59226C2.70196 5.50601 2.51272 5.37957 2.35332 5.22017C2.19392 5.06077 2.06748 4.87153 1.98123 4.66326C1.89498 4.45499 1.8506 4.23176 1.85063 4.00633C1.8506 3.78092 1.89498 3.55771 1.98123 3.34945C2.06749 3.14119 2.19393 2.95196 2.35333 2.79258C2.51274 2.63319 2.70198 2.50678 2.91025 2.42055C3.11852 2.33432 3.34174 2.28997 3.56716 2.29002C3.84586 2.27831 4.12399 2.3241 4.38423 2.42455C4.64447 2.52499 4.88125 2.67794 5.07981 2.87387L5.30163 2.53502C5.54094 2.1614 5.81547 1.74708 6.13069 1.32665C5.41403 0.722026 4.49908 0.403822 3.56191 0.433272H3.56716C1.59731 0.433272 0 2.0308 0 4.00043C0 5.97027 1.59731 7.5678 3.56716 7.5678C5.99594 7.5678 7.15181 5.81649 8.07997 4.35108C8.90903 3.06658 9.46947 2.28433 10.4447 2.28433C10.8999 2.28433 11.3364 2.46516 11.6583 2.78703C11.9801 3.1089 12.161 3.54545 12.161 4.00065C12.161 4.22607 12.1166 4.4493 12.0304 4.65757C11.9441 4.86584 11.8177 5.05508 11.6583 5.21448C11.4989 5.37388 11.3096 5.50032 11.1014 5.58657C10.8931 5.67283 10.6699 5.71721 10.4444 5.71718C9.99049 5.73293 9.54439 5.59581 9.17766 5.3278L9.18356 5.33174C8.84928 5.86126 8.48047 6.36818 8.07953 6.84921L8.09747 6.82646C8.75364 7.31034 9.54799 7.57047 10.3633 7.56846C10.388 7.56846 10.4125 7.56846 10.4363 7.5678H10.4328C12.4027 7.5678 14 5.97027 14 4.00043C14 2.0308 12.4027 0.433272 10.4328 0.433272H10.4444Z"
        fill="#B1BAD3" />
</svg>