<svg width="14" height="16" viewBox="0 0 14 16" fill="none" xmlns="http://www.w3.org/2000/svg">
    <path
        d="M13.0534 9.5133V12.1069H0.946564V9.5133H2.67312V5.55317C2.68262 3.47811 4.15116 1.74905 6.10522 1.33804L6.13323 1.33304V0.866527C6.13323 0.388012 6.52124 0 6.99975 0C7.47827 0 7.86628 0.388012 7.86628 0.866527V1.33304C9.85484 1.75005 11.3264 3.48911 11.3264 5.57217C11.3264 5.57267 11.3264 5.57267 11.3264 5.57317V9.5333L13.0534 9.5133ZM6.99975 16C8.4323 16 9.59333 14.839 9.59333 13.4064H4.40667C4.40667 14.839 5.56721 16 6.99975 16Z"
        fill="white" />
</svg>
    