<svg width="16" height="16" viewBox="0 0 16 16" fill="none" xmlns="http://www.w3.org/2000/svg">
    <path fill-rule="evenodd" clip-rule="evenodd"
        d="M4.985 5.29951C4.51853 5.83185 4.20166 6.47843 4.06675 7.17326H5.33325L2.66675 10.9268L0 7.17326H1.36675C1.50815 5.96265 1.97873 4.81397 2.72731 3.85211C3.4759 2.89024 4.47385 2.152 5.61266 1.71764C6.75148 1.28329 7.98757 1.16944 9.18657 1.38848C10.3856 1.60752 11.5016 2.15106 12.4132 2.96001L10.6667 4.96001C10.2729 4.60612 9.81267 4.33396 9.3128 4.1593C8.81294 3.98464 8.28337 3.91097 7.75481 3.94255C7.22626 3.97413 6.70923 4.11034 6.23372 4.34328C5.75821 4.57621 5.33368 4.90124 4.98475 5.29951H4.985ZM13.3335 5.07326L16 8.82676H14.6667C14.5255 10.0375 14.0549 11.1862 13.3064 12.1482C12.5578 13.1102 11.5598 13.8485 10.4209 14.2829C9.28198 14.7172 8.04579 14.831 6.84674 14.6119C5.64768 14.3928 4.53165 13.8491 3.62 13.04L5.36675 11.04C5.89366 11.5045 6.53359 11.822 7.22217 11.9607C7.91075 12.0993 8.6237 12.0542 9.28931 11.8299C9.95492 11.6055 10.5497 11.2099 11.0139 10.6827C11.4781 10.1555 11.7952 9.51541 11.9335 8.82676H10.6667L13.3335 5.07326Z"
        fill="#B1BAD3" />
</svg>