<svg width="14" height="14" viewBox="0 0 14 14" fill="none" xmlns="http://www.w3.org/2000/svg">
    <g clip-path="url(#clip0_4_4635)">
        <path
            d="M7.00022 3.5L7.67703 4.76C8.05809 5.46372 8.72987 5.96859 9.527 6.11647L9.54319 6.11909L10.9487 6.36978L9.96319 7.40228C9.48601 7.89353 9.21947 8.55165 9.22031 9.2365C9.22031 9.36512 9.2295 9.49156 9.24744 9.61537L9.24569 9.60137L9.43819 11.013L8.225 10.43C7.86734 10.2532 7.44559 10.1496 7.00022 10.1496C6.55484 10.1496 6.13309 10.2528 5.75881 10.437L5.77522 10.4296L4.56225 11.0127L4.75475 9.60115C4.77094 9.49178 4.78012 9.3649 4.78012 9.23628C4.78121 8.55098 4.51447 7.89238 4.03681 7.40097L4.03769 7.40206L3.05222 6.34025L4.45769 6.08956C4.84847 6.01849 5.21836 5.86076 5.54016 5.62795C5.86197 5.39514 6.12751 5.09317 6.31728 4.74425L6.32428 4.73047L7.00109 3.49978L7.00022 3.5ZM7.00022 0.303623H6.99891C6.71016 0.303623 6.45947 0.464623 6.33128 0.702186L6.32909 0.706123L4.66681 3.8325C4.61245 3.93279 4.53655 4.01979 4.44456 4.08727C4.35258 4.15474 4.2468 4.20101 4.13481 4.22275L4.13 4.22362L0.630437 4.85362C0.454267 4.88409 0.294479 4.97569 0.179171 5.11233C0.0638641 5.24896 0.000421441 5.42187 0 5.60065C0 5.80409 0.0800625 5.98872 0.210438 6.12522L0.21 6.125L2.66547 8.68547C2.74949 8.76972 2.81188 8.87305 2.8473 8.98664C2.88273 9.10023 2.89014 9.2207 2.86891 9.33778L2.86978 9.3334L2.39159 12.833C2.37658 12.9403 2.38477 13.0497 2.41561 13.1536C2.44646 13.2576 2.49924 13.3537 2.57039 13.4355C2.64155 13.5173 2.72942 13.5829 2.82809 13.6279C2.92676 13.6729 3.03392 13.6961 3.14234 13.6962H3.14409C3.26924 13.7005 3.3933 13.6716 3.50372 13.6126L3.49978 13.6143L6.62003 12.1093C6.74623 12.0476 6.88492 12.0157 7.02541 12.0161C7.1659 12.0164 7.30442 12.0491 7.43028 12.1115L7.42503 12.1093L10.4991 13.6143C10.6 13.6684 10.7128 13.6966 10.8272 13.6962H10.8318H10.8314C10.8388 13.6966 10.8476 13.6966 10.8563 13.6966C10.9652 13.6966 11.0727 13.6732 11.1717 13.6279C11.2706 13.5827 11.3587 13.5167 11.4299 13.4344C11.501 13.3521 11.5537 13.2554 11.5842 13.151C11.6147 13.0465 11.6224 12.9367 11.6067 12.829L11.6071 12.833L11.1289 9.3334C11.1115 9.21973 11.1209 9.10356 11.1563 8.99417C11.1918 8.88478 11.2524 8.7852 11.3332 8.7034L13.7887 6.14294C13.8834 6.04413 13.9496 5.92154 13.9803 5.78816C14.0111 5.65477 14.0051 5.51557 13.9631 5.38529C13.9212 5.25501 13.8447 5.13852 13.7419 5.04815C13.6391 4.95779 13.5138 4.89692 13.3792 4.872L13.3744 4.87134L9.87481 4.24134C9.76009 4.21924 9.65187 4.17142 9.55829 4.10147C9.46471 4.03153 9.38819 3.94129 9.3345 3.83753L9.33231 3.83315L7.66981 0.706779C7.60519 0.585279 7.50874 0.483639 7.39079 0.412739C7.27285 0.341839 7.13784 0.304348 7.00022 0.304279H6.99891L7.00022 0.303842V0.303623Z"
            fill="#B1BAD3" />
    </g>
    <defs>
        <clipPath id="clip0_4_4635">
            <rect width="14" height="14" fill="white" />
        </clipPath>
    </defs>
</svg>