<svg width="14" height="14" viewBox="0 0 14 14" fill="none" xmlns="http://www.w3.org/2000/svg">
    <path fill-rule="evenodd" clip-rule="evenodd"
        d="M6.99914 8.58812C9.37083 8.58812 11.2932 6.66575 11.2932 4.29406V4.29187C11.2932 1.9215 9.3717 0 7.00133 0H6.99914C4.62745 0 2.70508 1.92237 2.70508 4.29406C2.70508 6.66575 4.62745 8.58812 6.99914 8.58812ZM7 10.0624C8.60956 10.0624 10.0669 9.40925 11.1213 8.354L11.1514 8.36363C12.8131 8.97175 13.9987 10.566 14 12.4381V13.9999H0V12.4381C0.0013125 10.566 1.18737 8.97175 2.87875 8.354C3.93313 9.40969 5.39044 10.0624 7 10.0624Z"
        fill="white" />
</svg>
    