<svg width="16" height="16" viewBox="0 0 16 16" fill="none" xmlns="http://www.w3.org/2000/svg">
    <g clip-path="url(#clip0_4_4604)">
        <path
            d="M15.9825 8.0175C15.9825 12.4262 12.4088 16 8.00032 16C3.59149 16 0.0174866 12.426 0.0174866 8.0175C0.0174866 3.60884 3.59165 0.0350037 8.00015 0.0350037C12.4087 0.0350037 15.9827 3.60884 15.9827 8.0175H15.9825Z"
            fill="#F7931A" />
        <path
            d="M11.5875 7.03C11.7425 5.985 10.9475 5.4225 9.85749 5.0475L10.21 3.63L9.34999 3.415L8.99999 4.795C8.77249 4.7375 8.53999 4.685 8.30999 4.6325L8.65999 3.25L7.79749 3.035L7.44499 4.45C7.25749 4.4075 7.07249 4.365 6.89499 4.32L5.70499 4.0225L5.47749 4.9425C5.47749 4.9425 6.11749 5.09 6.10249 5.0975C6.22178 5.11211 6.33062 5.17278 6.40579 5.26654C6.48096 5.3603 6.51651 5.47973 6.50483 5.59934L6.50499 5.59767L6.10249 7.21267C6.13799 7.22084 6.16816 7.23034 6.19716 7.24167L6.19249 7.24L6.10249 7.2175L5.53749 9.4675C5.52514 9.5072 5.50501 9.54404 5.47826 9.57588C5.45152 9.60771 5.41871 9.6339 5.38174 9.65292C5.34477 9.67194 5.30438 9.68341 5.26294 9.68666C5.22149 9.6899 5.17981 9.68487 5.14033 9.67184L5.14249 9.6725L4.51499 9.5175L4.08749 10.5L5.20999 10.7775L5.82499 10.9375L5.46749 12.37L6.32999 12.585L6.68249 11.1675C6.91749 11.23 7.14499 11.29 7.36999 11.345L7.01749 12.7575L7.87999 12.9725L8.23499 11.5425C9.70749 11.82 10.8125 11.7075 11.2775 10.3775C11.6525 9.3075 11.26 8.69 10.485 8.2875C11.05 8.1675 11.4725 7.795 11.5875 7.03ZM9.61499 9.7925C9.34999 10.865 7.54749 10.2925 6.96249 10.14L7.43499 8.25C8.01999 8.3875 9.89499 8.6775 9.61499 9.7925ZM9.88249 7.015C9.63249 7.99 8.13249 7.4925 7.65249 7.3725L8.08249 5.6525C8.56749 5.7725 10.135 6 9.88249 7.015Z"
            fill="white" />
    </g>
    <defs>
        <clipPath id="clip0_4_4604">
            <rect width="16" height="16" fill="white" />
        </clipPath>
    </defs>
</svg>