<svg width="14" height="14" viewBox="0 0 14 14" fill="none" xmlns="http://www.w3.org/2000/svg">
    <path
        d="M3.595 6.47599C5.186 6.47599 6.476 5.18599 6.476 3.59499C6.476 2.00399 5.186 0.713989 3.595 0.713989C2.004 0.713989 0.713745 2.00399 0.713745 3.59499C0.713745 5.18599 2.004 6.47599 3.595 6.47599ZM3.595 2.80949C3.69816 2.80951 3.80032 2.82984 3.89563 2.86934C3.99094 2.90884 4.07754 2.96672 4.15048 3.03968C4.22342 3.11265 4.28128 3.19926 4.32074 3.29458C4.36021 3.38991 4.38051 3.49207 4.3805 3.59524C4.38048 3.69841 4.36014 3.80057 4.32065 3.89588C4.28115 3.99119 4.22327 4.07778 4.1503 4.15072C4.07734 4.22366 3.99072 4.28152 3.8954 4.32099C3.80008 4.36045 3.69791 4.38076 3.59475 4.38074C3.38638 4.38074 3.18656 4.29797 3.03922 4.15064C2.89189 4.0033 2.80912 3.80348 2.80912 3.59511C2.80912 3.38675 2.89189 3.18693 3.03922 3.03959C3.18656 2.89226 3.38663 2.80949 3.595 2.80949ZM10.405 7.52399C8.814 7.52399 7.524 8.81399 7.524 10.405C7.524 11.996 8.814 13.286 10.405 13.286C11.996 13.286 13.286 11.996 13.286 10.405C13.286 8.81399 11.996 7.52399 10.405 7.52399ZM10.405 11.1905C10.1966 11.1905 9.99681 11.1077 9.84947 10.9604C9.70214 10.8131 9.61937 10.6132 9.61937 10.4049C9.61937 10.1965 9.70214 9.99668 9.84947 9.84934C9.99681 9.70201 10.1966 9.61924 10.405 9.61924C10.6134 9.61924 10.8132 9.70201 10.9605 9.84934C11.1078 9.99668 11.1906 10.1965 11.1906 10.4049C11.1906 10.6132 11.1078 10.8131 10.9605 10.9604C10.8132 11.1077 10.6134 11.1905 10.405 11.1905ZM10.5512 0.714489L0.714245 13.286H3.37525L13.2125 0.714489H10.5512Z"
        fill="#B1BAD3" />
</svg>