<svg width="120" height="50" viewBox="0 0 91 34" fill="none" xmlns="http://www.w3.org/2000/svg">
    <path fill-rule="evenodd" clip-rule="evenodd" d="M40.9169 3.51685L40.9252 3.55639C40.9252 3.51685 40.9224 3.5066 40.9169 3.51685ZM39.68 1.29355C39.2076 0.921233 38.6762 0.641006 38.1107 0.466032C37.3182 0.218842 36.5009 0.0713599 35.6757 0.0266443C34.7385 2.08786 33.3312 5.0508 31.454 8.91546C29.5772 12.7806 26.6671 19.3143 23.8527 24.546C23.5267 22.7786 23.2289 21.0577 22.9593 19.3831C22.6892 17.7091 22.3249 14.9424 22.0728 13.157C21.7155 10.6276 21.2986 1.7593 21.0617 0.0237151C20.0501 -0.0535928 19.0336 0.0584605 18.0589 0.354721C17.1022 0.647646 16.4434 1.19981 16.0824 2.01121C15.5283 3.81856 13.9909 8.72653 10.2262 20.404C8.37714 26.1365 7.75663 29.2562 5.86045 29.8992C4.41858 30.3869 3.01965 30.2565 2.65676 28.9018C1.95175 26.2742 4.44905 24.1798 3.97536 23.922C2.56257 23.1428 0.293811 25.8348 0.0167945 28.7084C-0.164651 30.5934 1.16364 32.2543 2.09442 33.0935C3.08752 33.9943 5.46709 34.1407 6.99622 33.8917C8.99074 33.5051 10.1113 32.6629 11.5157 29.1009C15.2638 19.5809 17.3497 9.18202 17.5436 8.47022C17.8691 13.986 18.5797 20.9327 18.6794 22.1249C18.7791 23.3171 19.3595 28.9223 19.4675 29.7322C21.1296 30.1364 22.3655 30.2653 23.1754 30.1189C23.987 29.9724 24.3388 29.9724 25.2765 28.9018C26.5854 27.4034 28.019 24.3233 29.9401 20.6017C32.0385 16.5344 36.1633 6.98069 36.1633 6.98069C36.1633 6.98069 32.3446 29.2298 32.6202 26.7531C32.4402 28.373 32.3861 29.5325 32.4582 30.2316C32.5662 31.336 33.0893 31.9618 34.0275 32.1093C34.9656 32.2567 36.1383 32.2196 37.5456 31.998C37.3295 31.705 37.1924 30.6666 37.3295 29.4861C38.0068 23.6569 38.8794 17.3297 39.9515 10.3508C40.3143 7.98835 40.8462 3.66331 40.921 3.52124C40.77 2.78454 40.4598 1.94384 39.68 1.29355Z" fill="black"/>
    <path fill-rule="evenodd" clip-rule="evenodd" d="M52.9103 23.7696C52.8689 23.7682 52.8277 23.7757 52.7892 23.7916C52.7506 23.8074 52.7155 23.8313 52.6859 23.8619C52.0543 24.4477 48.5307 27.147 47.7855 27.5894C47.0403 28.0317 46.3145 28.2543 45.6234 28.2543C44.9936 28.2543 44.5356 27.9946 44.2494 27.4751C43.964 26.9552 43.8214 26.2844 43.8214 25.4583V24.8622C44.7846 24.896 45.7458 24.7472 46.6594 24.4228C47.528 24.1251 48.3337 23.6521 49.0321 23.03C49.7047 22.424 50.2496 21.6755 50.6318 20.833C51.0254 19.9618 51.2109 19.0018 51.172 18.0371C51.1623 17.6409 51.0752 17.2511 50.9162 16.8922C50.7572 16.5333 50.5298 16.213 50.2481 15.9514C49.6636 15.3861 48.8003 15.1034 47.658 15.1034C46.7273 15.1034 45.7965 15.3963 44.8657 15.9822C43.8916 16.6024 43.03 17.4014 42.3213 18.3417C40.6871 20.5027 39.6922 23.1255 39.4611 25.8816C39.3688 27.3785 39.6989 28.6083 40.4515 29.571C41.2022 30.5333 41.8601 31.1191 43.7577 31.1045C45.6552 31.0898 50.3119 29.5871 52.7316 25.9255L53.2718 24.2295C53.1873 23.9234 53.0626 23.7696 52.9103 23.7696ZM44.5873 21.082C44.8083 20.3779 45.0863 19.6953 45.4184 19.0418C45.6937 18.4883 46.0426 17.9793 46.4544 17.5303C46.8293 17.1329 47.2268 16.9342 47.647 16.9342C48.1585 16.9342 48.4591 17.2169 48.5487 17.7822C48.6382 18.3476 48.5256 18.9891 48.2107 19.7067C47.8346 20.5088 47.3137 21.2253 46.6774 21.8158C45.9309 22.5262 45.025 23.0228 44.0458 23.2585C44.176 22.5199 44.3561 21.7924 44.5873 21.082Z" fill="black"/>
    <path fill-rule="evenodd" clip-rule="evenodd" d="M57.5863 12.5345C57.9705 12.6016 58.365 12.5375 58.7124 12.3514C59.0402 12.1697 59.3245 11.9112 59.5434 11.5956C59.7689 11.276 59.9438 10.9199 60.0615 10.5411C60.1785 10.1794 60.2393 9.80003 60.2415 9.41774C60.2415 8.80651 60.0688 8.3637 59.7235 8.08933C59.389 7.81815 58.9931 7.64443 58.5753 7.58549C57.9455 7.52398 57.3522 7.7759 56.7954 8.34124C56.2422 8.90121 55.9122 9.66353 55.873 10.4723C55.8402 10.7189 55.8595 10.9701 55.9294 11.2078C55.9994 11.4456 56.1182 11.6641 56.2774 11.8476C56.613 12.2472 57.0823 12.4935 57.5863 12.5345ZM62.315 22.8923C62.1058 22.6785 61.9244 22.5994 61.7748 22.6624C61.7328 22.6752 61.6944 22.6987 61.663 22.7309C61.6316 22.7631 61.6082 22.8029 61.5947 22.8469C61.2969 23.5744 60.9507 24.2787 60.5587 24.9545C60.199 25.5801 59.7844 26.1686 59.3204 26.7121C58.9364 27.1722 58.488 27.5673 57.9908 27.8838C57.615 28.137 57.1757 28.2646 56.7303 28.2499C56.4893 28.2499 56.3767 28.0058 56.3924 27.5176C56.4227 26.9017 56.4977 26.2891 56.6168 25.6854C56.7525 24.9521 56.9252 24.1421 57.1348 23.2555C57.3444 22.3689 57.5397 21.5214 57.7207 20.7129C57.9007 19.9025 58.0508 19.1765 58.1708 18.535C58.2909 17.8935 58.3209 17.4507 58.2608 17.2066C58.1113 16.6862 57.7059 16.2278 57.0447 15.8313C56.3967 15.438 55.6735 15.2033 54.9283 15.1444C54.8211 16.028 54.6479 16.9012 54.4103 17.7559C54.125 18.8563 53.8244 20.0021 53.5086 21.1933C53.1928 22.3846 52.901 23.5226 52.6333 24.6074C52.3627 25.6922 52.2279 26.5402 52.2288 27.1514C52.2435 27.6046 52.3675 28.0462 52.5889 28.4345C52.8319 28.8972 53.1349 29.3217 53.4892 29.6955C53.8435 30.0727 54.2453 30.3965 54.6832 30.6578C55.0718 30.9035 55.5144 31.0377 55.9671 31.0473C57.2276 31.0473 58.4363 30.4742 59.5933 29.3279C60.7503 28.1816 61.7199 26.6159 62.502 24.6308L62.315 22.8923Z" fill="black"/>
    <path fill-rule="evenodd" clip-rule="evenodd" d="M77.5287 14.2203C77.313 13.5384 76.9453 12.9215 76.4567 12.4217C76.0159 11.9887 75.4885 11.6663 74.9137 11.4785C74.3225 11.2876 73.7076 11.1918 73.0895 11.1943C72.1401 11.1873 71.2043 11.4326 70.3678 11.9076C69.5935 12.3328 68.8857 12.8817 68.2694 13.5348C68.4938 12.4686 68.6808 11.5073 68.8304 10.651C68.98 9.79464 69.1185 8.98617 69.2459 8.22554C69.3761 7.46393 69.4975 6.72136 69.6102 5.99784C69.7228 5.27431 69.835 4.49611 69.9468 3.66322C69.9818 3.27289 69.8931 2.88132 69.6947 2.55011C69.4662 2.16272 69.1712 1.82393 68.8249 1.55123C68.4294 1.23359 67.9952 0.973956 67.534 0.779375C67.0692 0.575602 66.577 0.450551 66.0755 0.408824C66.1503 0.523065 66.1313 0.941948 66.0187 1.66547C65.906 2.389 65.738 3.29902 65.5145 4.39554C65.2153 5.95781 64.8409 7.70852 64.3912 9.64769C63.9415 11.5869 63.502 13.528 63.0726 15.471C62.6432 17.4131 62.2411 19.2683 61.8662 21.0366C61.4913 22.8049 61.2111 24.2988 61.0255 25.5184C60.8011 27.0807 61.0813 28.3842 61.8662 29.4289C62.6511 30.4737 63.9438 30.9971 65.7444 30.999C67.4249 31.0081 69.0786 30.5538 70.5424 29.6809C72.0122 28.8107 73.3233 27.6699 74.4137 26.3122C75.5022 24.9683 76.3744 23.4443 76.9955 21.8012C77.5863 20.2985 77.9004 18.6903 77.9207 17.0631C77.9207 15.9285 77.79 14.9809 77.5287 14.2203ZM72.3942 19.9323C72.124 21.2678 71.7196 22.5689 71.1878 23.8136C70.7151 24.9467 70.0808 25.9963 69.3069 26.9259C68.5783 27.7822 67.8022 28.2104 66.9785 28.2104C66.8333 28.2161 66.6884 28.1908 66.5526 28.1359C66.4167 28.0811 66.2928 27.9979 66.188 27.8912C66.0833 27.7846 66 27.6567 65.943 27.5153C65.8861 27.3738 65.8567 27.2217 65.8566 27.068C65.8748 26.406 65.9499 25.7471 66.081 25.0995C66.2512 24.1917 66.4666 23.2941 66.7265 22.4104C67.0035 21.4409 67.3308 20.461 67.7085 19.4709C68.0482 18.5556 68.4515 17.6681 68.9149 16.8156C69.2921 16.1089 69.7539 15.4567 70.2889 14.8749C70.7746 14.3604 71.2612 14.1036 71.7488 14.1045C72.1606 14.1045 72.4408 14.3233 72.5895 14.7607C72.7517 15.2856 72.8275 15.8359 72.8139 16.3879C72.7909 17.5806 72.6502 18.7675 72.3942 19.9294V19.9323Z" fill="black"/>
    <path fill-rule="evenodd" clip-rule="evenodd" d="M90.0304 16.9664C89.3841 15.99 88.2802 15.5018 86.7187 15.5018C85.5158 15.4927 84.3384 15.8679 83.3405 16.5783C82.3212 17.2942 81.4356 18.2028 80.7282 19.2586C80.0082 20.3308 79.4476 21.5132 79.0661 22.7649C78.6956 23.9089 78.4979 25.1075 78.4802 26.3166C78.4802 27.7812 78.923 28.9959 79.8085 29.9606C80.6941 30.9253 81.858 31.4067 83.3003 31.4047C84.5931 31.4047 85.7191 31.0532 86.6785 30.3502C87.6419 29.6433 88.4614 28.7394 89.0886 27.6919C89.7395 26.6101 90.2255 25.4269 90.5291 24.1856C90.8318 23.0125 90.9901 21.8029 91 20.587C91 19.1507 90.6768 17.9438 90.0304 16.9664ZM87.8683 21.9462C87.6666 22.9954 87.3802 24.0244 87.0124 25.0219C86.6696 25.9789 86.2155 26.8871 85.6605 27.7256C85.1351 28.5067 84.5418 28.8973 83.8807 28.8973C83.7719 28.9013 83.6637 28.881 83.5629 28.8375C83.4622 28.7941 83.3713 28.7286 83.2962 28.6454C83.1377 28.4624 83.0219 28.2427 82.9582 28.0039C82.884 27.7496 82.8311 27.4888 82.8003 27.2247C82.7725 27.0042 82.7572 26.7821 82.7546 26.5597C82.7786 25.7837 82.854 25.0105 82.9804 24.2456C83.1349 23.2001 83.3759 22.1709 83.7006 21.1699C83.9976 20.2171 84.4225 19.3145 84.9624 18.4896C85.4721 17.7251 86.0876 17.3428 86.8087 17.3428C87.0684 17.3239 87.3261 17.4016 87.5373 17.5625C87.7164 17.7135 87.8557 17.9108 87.9417 18.1352C88.0354 18.3768 88.096 18.6313 88.1218 18.8909C88.1503 19.1339 88.1656 19.3784 88.1675 19.6233C88.1638 20.1427 88.0646 20.9146 87.8697 21.9388L87.8683 21.9462Z" fill="black"/>
    </svg>
    