<svg width="126" height="216" viewBox="0 0 126 216" fill="none" xmlns="http://www.w3.org/2000/svg">
<g filter="url(#filter0_d_243_3607)">
<rect x="3" y="23" width="120" height="190" rx="6" fill="white"/>
</g>
<g clip-path="url(#clip0_243_3607)">
<path fill-rule="evenodd" clip-rule="evenodd" d="M67.3955 127.884L42.8791 103.367C42.7565 103.244 42.6092 103.147 42.4468 103.084C42.2844 103.021 42.1106 102.993 41.9366 103.002H41.939V103.003C41.6229 103.014 41.3228 103.145 41.0997 103.369V103.367L16.6012 127.866C16.4851 127.982 16.393 128.12 16.3303 128.272C16.2675 128.424 16.2354 128.587 16.2356 128.751C16.2356 129.098 16.3753 129.41 16.6012 129.637L27.9778 141.014C28.2053 141.24 28.5173 141.379 28.8635 141.379C29.2096 141.379 29.5216 141.24 29.7491 141.014L41.0997 129.663C41.3226 129.439 41.6224 129.308 41.9382 129.297H41.9398C41.9556 129.298 41.9713 129.297 41.987 129.296C42.3315 129.296 42.6451 129.436 42.871 129.663L54.2476 141.04C54.4751 141.266 54.7871 141.405 55.1332 141.405C55.4794 141.405 55.7913 141.266 56.0188 141.04L67.3955 129.663C67.6246 129.436 67.7635 129.12 67.7635 128.773C67.7635 128.425 67.623 128.11 67.3955 127.882V127.884ZM53.1012 155H30.7753C30.6174 155 30.463 154.953 30.3319 154.865C30.2007 154.777 30.0985 154.652 30.0383 154.506C29.9781 154.36 29.9625 154.2 29.9937 154.045C30.0248 153.89 30.1011 153.748 30.213 153.637L41.3735 142.476H41.3719C41.5219 142.327 41.7245 142.244 41.9358 142.244H41.9374V142.283L41.9455 142.244C42.1633 142.245 42.3599 142.333 42.5029 142.476L53.6634 153.637C53.7753 153.748 53.8517 153.89 53.8828 154.045C53.9139 154.2 53.8984 154.36 53.8382 154.506C53.778 154.652 53.6758 154.777 53.5446 154.865C53.4134 154.953 53.2591 155 53.1012 155Z" fill="#1A2C38"/>
</g>
<path d="M55.7363 44.5898L43.2949 81H35.5L45.7324 51.877H30.2441V44.5898H55.7363Z" fill="#1A2C38"/>
<g filter="url(#filter1_d_243_3607)">
<rect x="3" y="19" width="120" height="190" rx="6" fill="white"/>
</g>
<g clip-path="url(#clip1_243_3607)">
<path fill-rule="evenodd" clip-rule="evenodd" d="M67.3955 123.884L42.8791 99.3673C42.7565 99.2435 42.6092 99.147 42.4468 99.084C42.2844 99.021 42.1106 98.993 41.9366 99.0016H41.939V99.0033C41.6229 99.0139 41.3228 99.1447 41.0997 99.3689V99.3673L16.6012 123.866C16.4851 123.982 16.393 124.12 16.3303 124.272C16.2675 124.424 16.2354 124.587 16.2356 124.751C16.2356 125.098 16.3753 125.41 16.6012 125.637L27.9778 137.014C28.2053 137.24 28.5173 137.379 28.8635 137.379C29.2096 137.379 29.5216 137.24 29.7491 137.014L41.0997 125.663C41.3226 125.439 41.6224 125.308 41.9382 125.297H41.9398C41.9556 125.298 41.9713 125.297 41.987 125.296C42.3315 125.296 42.6451 125.436 42.871 125.663L54.2476 137.04C54.4751 137.266 54.7871 137.405 55.1332 137.405C55.4794 137.405 55.7913 137.266 56.0188 137.04L67.3955 125.663C67.6246 125.436 67.7635 125.12 67.7635 124.773C67.7635 124.425 67.623 124.11 67.3955 123.882V123.884ZM53.1012 151H30.7753C30.6174 151 30.463 150.953 30.3319 150.865C30.2007 150.777 30.0985 150.652 30.0383 150.506C29.9781 150.36 29.9625 150.2 29.9937 150.045C30.0248 149.89 30.1011 149.748 30.213 149.637L41.3735 138.476H41.3719C41.5219 138.327 41.7245 138.244 41.9358 138.244H41.9374V138.283L41.9455 138.244C42.1633 138.245 42.3599 138.333 42.5029 138.476L53.6634 149.637C53.7753 149.748 53.8517 149.89 53.8828 150.045C53.9139 150.2 53.8984 150.36 53.8382 150.506C53.778 150.652 53.6758 150.777 53.5446 150.865C53.4134 150.953 53.2591 151 53.1012 151Z" fill="#1A2C38"/>
</g>
<path d="M55.7363 40.5898L43.2949 77H35.5L45.7324 47.877H30.2441V40.5898H55.7363Z" fill="#1A2C38"/>
<g filter="url(#filter2_d_243_3607)">
<rect x="3" y="15" width="120" height="190" rx="6" fill="white"/>
</g>
<g clip-path="url(#clip2_243_3607)">
<path fill-rule="evenodd" clip-rule="evenodd" d="M67.3955 119.884L42.8791 95.3673C42.7565 95.2435 42.6092 95.147 42.4468 95.084C42.2844 95.021 42.1106 94.993 41.9366 95.0016H41.939V95.0033C41.6229 95.0139 41.3228 95.1447 41.0997 95.3689V95.3673L16.6012 119.866C16.4851 119.982 16.393 120.12 16.3303 120.272C16.2675 120.424 16.2354 120.587 16.2356 120.751C16.2356 121.098 16.3753 121.41 16.6012 121.637L27.9778 133.014C28.2053 133.24 28.5173 133.379 28.8635 133.379C29.2096 133.379 29.5216 133.24 29.7491 133.014L41.0997 121.663C41.3226 121.439 41.6224 121.308 41.9382 121.297H41.9398C41.9556 121.298 41.9713 121.297 41.987 121.296C42.3315 121.296 42.6451 121.436 42.871 121.663L54.2476 133.04C54.4751 133.266 54.7871 133.405 55.1332 133.405C55.4794 133.405 55.7913 133.266 56.0188 133.04L67.3955 121.663C67.6246 121.436 67.7635 121.12 67.7635 120.773C67.7635 120.425 67.623 120.11 67.3955 119.882V119.884ZM53.1012 147H30.7753C30.6174 147 30.463 146.953 30.3319 146.865C30.2007 146.777 30.0985 146.652 30.0383 146.506C29.9781 146.36 29.9625 146.2 29.9937 146.045C30.0248 145.89 30.1011 145.748 30.213 145.637L41.3735 134.476H41.3719C41.5219 134.327 41.7245 134.244 41.9358 134.244H41.9374V134.283L41.9455 134.244C42.1633 134.245 42.3599 134.333 42.5029 134.476L53.6634 145.637C53.7753 145.748 53.8517 145.89 53.8828 146.045C53.9139 146.2 53.8984 146.36 53.8382 146.506C53.778 146.652 53.6758 146.777 53.5446 146.865C53.4134 146.953 53.2591 147 53.1012 147Z" fill="#1A2C38"/>
</g>
<path d="M55.7363 36.5898L43.2949 73H35.5L45.7324 43.877H30.2441V36.5898H55.7363Z" fill="#1A2C38"/>
<g filter="url(#filter3_d_243_3607)">
<rect x="3" y="11" width="120" height="190" rx="6" fill="white"/>
</g>
<g clip-path="url(#clip3_243_3607)">
<path fill-rule="evenodd" clip-rule="evenodd" d="M67.3955 115.884L42.8791 91.3673C42.7565 91.2435 42.6092 91.147 42.4468 91.084C42.2844 91.021 42.1106 90.993 41.9366 91.0016H41.939V91.0033C41.6229 91.0139 41.3228 91.1447 41.0997 91.3689V91.3673L16.6012 115.866C16.4851 115.982 16.393 116.12 16.3303 116.272C16.2675 116.424 16.2354 116.587 16.2356 116.751C16.2356 117.098 16.3753 117.41 16.6012 117.637L27.9778 129.014C28.2053 129.24 28.5173 129.379 28.8635 129.379C29.2096 129.379 29.5216 129.24 29.7491 129.014L41.0997 117.663C41.3226 117.439 41.6224 117.308 41.9382 117.297H41.9398C41.9556 117.298 41.9713 117.297 41.987 117.296C42.3315 117.296 42.6451 117.436 42.871 117.663L54.2476 129.04C54.4751 129.266 54.7871 129.405 55.1332 129.405C55.4794 129.405 55.7913 129.266 56.0188 129.04L67.3955 117.663C67.6246 117.436 67.7635 117.12 67.7635 116.773C67.7635 116.425 67.623 116.11 67.3955 115.882V115.884ZM53.1012 143H30.7753C30.6174 143 30.463 142.953 30.3319 142.865C30.2007 142.777 30.0985 142.652 30.0383 142.506C29.9781 142.36 29.9625 142.2 29.9937 142.045C30.0248 141.89 30.1011 141.748 30.213 141.637L41.3735 130.476H41.3719C41.5219 130.327 41.7245 130.244 41.9358 130.244H41.9374V130.283L41.9455 130.244C42.1633 130.245 42.3599 130.333 42.5029 130.476L53.6634 141.637C53.7753 141.748 53.8517 141.89 53.8828 142.045C53.9139 142.2 53.8984 142.36 53.8382 142.506C53.778 142.652 53.6758 142.777 53.5446 142.865C53.4134 142.953 53.2591 143 53.1012 143Z" fill="#1A2C38"/>
</g>
<path d="M55.7363 32.5898L43.2949 69H35.5L45.7324 39.877H30.2441V32.5898H55.7363Z" fill="#1A2C38"/>
<g filter="url(#filter4_d_243_3607)">
<rect x="3" y="7" width="120" height="190" rx="6" fill="white"/>
</g>
<g clip-path="url(#clip4_243_3607)">
<path fill-rule="evenodd" clip-rule="evenodd" d="M67.3955 111.884L42.8791 87.3673C42.7565 87.2435 42.6092 87.147 42.4468 87.084C42.2844 87.021 42.1106 86.993 41.9366 87.0016H41.939V87.0033C41.6229 87.0139 41.3228 87.1447 41.0997 87.3689V87.3673L16.6012 111.866C16.4851 111.982 16.393 112.12 16.3303 112.272C16.2675 112.424 16.2354 112.587 16.2356 112.751C16.2356 113.098 16.3753 113.41 16.6012 113.637L27.9778 125.014C28.2053 125.24 28.5173 125.379 28.8635 125.379C29.2096 125.379 29.5216 125.24 29.7491 125.014L41.0997 113.663C41.3226 113.439 41.6224 113.308 41.9382 113.297H41.9398C41.9556 113.298 41.9713 113.297 41.987 113.296C42.3315 113.296 42.6451 113.436 42.871 113.663L54.2476 125.04C54.4751 125.266 54.7871 125.405 55.1332 125.405C55.4794 125.405 55.7913 125.266 56.0188 125.04L67.3955 113.663C67.6246 113.436 67.7635 113.12 67.7635 112.773C67.7635 112.425 67.623 112.11 67.3955 111.882V111.884ZM53.1012 139H30.7753C30.6174 139 30.463 138.953 30.3319 138.865C30.2007 138.777 30.0985 138.652 30.0383 138.506C29.9781 138.36 29.9625 138.2 29.9937 138.045C30.0248 137.89 30.1011 137.748 30.213 137.637L41.3735 126.476H41.3719C41.5219 126.327 41.7245 126.244 41.9358 126.244H41.9374V126.283L41.9455 126.244C42.1633 126.245 42.3599 126.333 42.5029 126.476L53.6634 137.637C53.7753 137.748 53.8517 137.89 53.8828 138.045C53.9139 138.2 53.8984 138.36 53.8382 138.506C53.778 138.652 53.6758 138.777 53.5446 138.865C53.4134 138.953 53.2591 139 53.1012 139Z" fill="#1A2C38"/>
</g>
<path d="M55.7363 28.5898L43.2949 65H35.5L45.7324 35.877H30.2441V28.5898H55.7363Z" fill="#1A2C38"/>
<g filter="url(#filter5_d_243_3607)">
<rect x="3" y="3" width="120" height="190" rx="6" fill="white"/>
</g>
<g clip-path="url(#clip5_243_3607)">
<path fill-rule="evenodd" clip-rule="evenodd" d="M67.3955 107.884L42.8791 83.3673C42.7565 83.2435 42.6092 83.147 42.4468 83.084C42.2844 83.021 42.1106 82.993 41.9366 83.0016H41.939V83.0033C41.6229 83.0139 41.3228 83.1447 41.0997 83.3689V83.3673L16.6012 107.866C16.4851 107.982 16.393 108.12 16.3303 108.272C16.2675 108.424 16.2354 108.587 16.2356 108.751C16.2356 109.098 16.3753 109.41 16.6012 109.637L27.9778 121.014C28.2053 121.24 28.5173 121.379 28.8635 121.379C29.2096 121.379 29.5216 121.24 29.7491 121.014L41.0997 109.663C41.3226 109.439 41.6224 109.308 41.9382 109.297H41.9398C41.9556 109.298 41.9713 109.297 41.987 109.296C42.3315 109.296 42.6451 109.436 42.871 109.663L54.2476 121.04C54.4751 121.266 54.7871 121.405 55.1332 121.405C55.4794 121.405 55.7913 121.266 56.0188 121.04L67.3955 109.663C67.6246 109.436 67.7635 109.12 67.7635 108.773C67.7635 108.425 67.623 108.11 67.3955 107.882V107.884ZM53.1012 135H30.7753C30.6174 135 30.463 134.953 30.3319 134.865C30.2007 134.777 30.0985 134.652 30.0383 134.506C29.9781 134.36 29.9625 134.2 29.9937 134.045C30.0248 133.89 30.1011 133.748 30.213 133.637L41.3735 122.476H41.3719C41.5219 122.327 41.7245 122.244 41.9358 122.244H41.9374V122.283L41.9455 122.244C42.1633 122.245 42.3599 122.333 42.5029 122.476L53.6634 133.637C53.7753 133.748 53.8517 133.89 53.8828 134.045C53.9139 134.2 53.8984 134.36 53.8382 134.506C53.778 134.652 53.6758 134.777 53.5446 134.865C53.4134 134.953 53.2591 135 53.1012 135Z" fill="#1A2C38"/>
</g>
<path d="M55.7363 24.5898L43.2949 61H35.5L45.7324 31.877H30.2441V24.5898H55.7363Z" fill="#1A2C38"/>
<defs>
<filter id="filter0_d_243_3607" x="0" y="20" width="126" height="196" filterUnits="userSpaceOnUse" color-interpolation-filters="sRGB">
<feFlood flood-opacity="0" result="BackgroundImageFix"/>
<feColorMatrix in="SourceAlpha" type="matrix" values="0 0 0 0 0 0 0 0 0 0 0 0 0 0 0 0 0 0 127 0" result="hardAlpha"/>
<feOffset/>
<feGaussianBlur stdDeviation="1.5"/>
<feComposite in2="hardAlpha" operator="out"/>
<feColorMatrix type="matrix" values="0 0 0 0 0 0 0 0 0 0 0 0 0 0 0 0 0 0 0.3 0"/>
<feBlend mode="normal" in2="BackgroundImageFix" result="effect1_dropShadow_243_3607"/>
<feBlend mode="normal" in="SourceGraphic" in2="effect1_dropShadow_243_3607" result="shape"/>
</filter>
<filter id="filter1_d_243_3607" x="0" y="16" width="126" height="196" filterUnits="userSpaceOnUse" color-interpolation-filters="sRGB">
<feFlood flood-opacity="0" result="BackgroundImageFix"/>
<feColorMatrix in="SourceAlpha" type="matrix" values="0 0 0 0 0 0 0 0 0 0 0 0 0 0 0 0 0 0 127 0" result="hardAlpha"/>
<feOffset/>
<feGaussianBlur stdDeviation="1.5"/>
<feComposite in2="hardAlpha" operator="out"/>
<feColorMatrix type="matrix" values="0 0 0 0 0 0 0 0 0 0 0 0 0 0 0 0 0 0 0.3 0"/>
<feBlend mode="normal" in2="BackgroundImageFix" result="effect1_dropShadow_243_3607"/>
<feBlend mode="normal" in="SourceGraphic" in2="effect1_dropShadow_243_3607" result="shape"/>
</filter>
<filter id="filter2_d_243_3607" x="0" y="12" width="126" height="196" filterUnits="userSpaceOnUse" color-interpolation-filters="sRGB">
<feFlood flood-opacity="0" result="BackgroundImageFix"/>
<feColorMatrix in="SourceAlpha" type="matrix" values="0 0 0 0 0 0 0 0 0 0 0 0 0 0 0 0 0 0 127 0" result="hardAlpha"/>
<feOffset/>
<feGaussianBlur stdDeviation="1.5"/>
<feComposite in2="hardAlpha" operator="out"/>
<feColorMatrix type="matrix" values="0 0 0 0 0 0 0 0 0 0 0 0 0 0 0 0 0 0 0.3 0"/>
<feBlend mode="normal" in2="BackgroundImageFix" result="effect1_dropShadow_243_3607"/>
<feBlend mode="normal" in="SourceGraphic" in2="effect1_dropShadow_243_3607" result="shape"/>
</filter>
<filter id="filter3_d_243_3607" x="0" y="8" width="126" height="196" filterUnits="userSpaceOnUse" color-interpolation-filters="sRGB">
<feFlood flood-opacity="0" result="BackgroundImageFix"/>
<feColorMatrix in="SourceAlpha" type="matrix" values="0 0 0 0 0 0 0 0 0 0 0 0 0 0 0 0 0 0 127 0" result="hardAlpha"/>
<feOffset/>
<feGaussianBlur stdDeviation="1.5"/>
<feComposite in2="hardAlpha" operator="out"/>
<feColorMatrix type="matrix" values="0 0 0 0 0 0 0 0 0 0 0 0 0 0 0 0 0 0 0.3 0"/>
<feBlend mode="normal" in2="BackgroundImageFix" result="effect1_dropShadow_243_3607"/>
<feBlend mode="normal" in="SourceGraphic" in2="effect1_dropShadow_243_3607" result="shape"/>
</filter>
<filter id="filter4_d_243_3607" x="0" y="4" width="126" height="196" filterUnits="userSpaceOnUse" color-interpolation-filters="sRGB">
<feFlood flood-opacity="0" result="BackgroundImageFix"/>
<feColorMatrix in="SourceAlpha" type="matrix" values="0 0 0 0 0 0 0 0 0 0 0 0 0 0 0 0 0 0 127 0" result="hardAlpha"/>
<feOffset/>
<feGaussianBlur stdDeviation="1.5"/>
<feComposite in2="hardAlpha" operator="out"/>
<feColorMatrix type="matrix" values="0 0 0 0 0 0 0 0 0 0 0 0 0 0 0 0 0 0 0.3 0"/>
<feBlend mode="normal" in2="BackgroundImageFix" result="effect1_dropShadow_243_3607"/>
<feBlend mode="normal" in="SourceGraphic" in2="effect1_dropShadow_243_3607" result="shape"/>
</filter>
<filter id="filter5_d_243_3607" x="0" y="0" width="126" height="196" filterUnits="userSpaceOnUse" color-interpolation-filters="sRGB">
<feFlood flood-opacity="0" result="BackgroundImageFix"/>
<feColorMatrix in="SourceAlpha" type="matrix" values="0 0 0 0 0 0 0 0 0 0 0 0 0 0 0 0 0 0 127 0" result="hardAlpha"/>
<feOffset/>
<feGaussianBlur stdDeviation="1.5"/>
<feComposite in2="hardAlpha" operator="out"/>
<feColorMatrix type="matrix" values="0 0 0 0 0 0 0 0 0 0 0 0 0 0 0 0 0 0 0.3 0"/>
<feBlend mode="normal" in2="BackgroundImageFix" result="effect1_dropShadow_243_3607"/>
<feBlend mode="normal" in="SourceGraphic" in2="effect1_dropShadow_243_3607" result="shape"/>
</filter>
<clipPath id="clip0_243_3607">
<rect width="52" height="52" fill="white" transform="translate(16 103)"/>
</clipPath>
<clipPath id="clip1_243_3607">
<rect width="52" height="52" fill="white" transform="translate(16 99)"/>
</clipPath>
<clipPath id="clip2_243_3607">
<rect width="52" height="52" fill="white" transform="translate(16 95)"/>
</clipPath>
<clipPath id="clip3_243_3607">
<rect width="52" height="52" fill="white" transform="translate(16 91)"/>
</clipPath>
<clipPath id="clip4_243_3607">
<rect width="52" height="52" fill="white" transform="translate(16 87)"/>
</clipPath>
<clipPath id="clip5_243_3607">
<rect width="52" height="52" fill="white" transform="translate(16 83)"/>
</clipPath>
</defs>
</svg>
