<svg width="126" height="196" viewBox="0 0 126 196" fill="none" xmlns="http://www.w3.org/2000/svg">
<g filter="url(#filter0_d_243_3583)">
<rect x="3" y="3" width="120" height="190" rx="6" fill="white"/>
</g>
<path d="M10.973 8H115.027C116.514 8 117.788 9.2766 118 10.766V185.234C118 186.936 116.726 188 115.027 188H10.973C9.48649 188 8.21236 186.723 8 185.234V10.766C8.21236 9.2766 9.48649 8.21277 10.973 8Z" fill="#1B5B43"/>
<path d="M86.9961 50.3404C63.2123 58 41.7645 71.4043 30.2973 79.0638L23.0772 90.5532H31.1467C54.0811 76.0851 78.2896 65.234 92.7297 59.0638L86.9961 50.3404Z" fill="#165E44"/>
<path d="M70.0077 25.0213C64.0618 27.5745 56.8417 30.766 49.6216 34.8085L38.7915 50.9787C50.471 42.8936 64.0618 36.0851 74.2548 31.617L70.0077 25.0213Z" fill="#165E44"/>
<path d="M91.8803 95.4468C66.61 105.021 39.6409 120.128 20.9537 131.404L8.21236 150.553C44.3127 128 81.6873 111.83 98.4633 104.809L91.8803 95.4468Z" fill="#165E44"/>
<path d="M95.9151 150.979C102.073 148 107.807 145.447 112.903 143.106L107.807 135.447L74.0425 150.979H95.9151Z" fill="#165E44"/>
<path d="M70.0077 152.681L55.7799 159.277V171.191C60.2394 168.851 64.9112 166.298 70.0077 163.745V152.681Z" fill="#165E44"/>
<path d="M63 14.383L49.6216 34.5957C56.8417 30.766 64.0618 27.3617 70.0077 24.8085L63 14.383Z" fill="#246E52"/>
<path d="M74.2548 31.4043C64.0618 36.0851 50.471 42.6809 38.7915 50.766L31.1467 62.4681H40.9151L30.2973 79.0638C41.7645 71.4043 63.2123 58 86.9961 50.3404L74.2548 31.4043Z" fill="#246E52"/>
<path d="M88.4826 90.5532H103.135L85.2973 62.4681H94.8533L92.5174 58.8511C78.0772 65.0213 53.8687 76.0851 30.9344 90.3404H37.5174L14.583 123.319H26.2625L20.9537 131.404C39.6409 120.128 66.61 105.021 91.8803 95.4468L88.4826 90.5532Z" fill="#246E52"/>
<path d="M70.0077 150.979H73.8301L107.807 135.447L99.7374 123.319H111.417L98.6757 105.021C81.8996 111.83 44.3127 128.213 8.42471 150.766L8.21236 151.191H56.2046V159.489L70.4324 152.894V150.979H70.0077Z" fill="#246E52"/>
<path d="M118 150.979L112.691 143.106C107.807 145.447 102.073 148 95.7027 150.979H118Z" fill="#246E52"/>
<path d="M70.0077 188V163.532C64.9112 166.085 60.2394 168.638 55.7799 170.979V188H70.0077Z" fill="#246E52"/>
<path d="M59.39 52.8936C61.1492 52.8936 62.5753 51.4647 62.5753 49.7021C62.5753 47.9395 61.1492 46.5106 59.39 46.5106C57.6307 46.5106 56.2046 47.9395 56.2046 49.7021C56.2046 51.4647 57.6307 52.8936 59.39 52.8936Z" fill="#5F9683"/>
<path d="M95.7027 38.4255C97.4619 38.4255 98.888 36.9967 98.888 35.234C98.888 33.4714 97.4619 32.0426 95.7027 32.0426C93.9435 32.0426 92.5174 33.4714 92.5174 35.234C92.5174 36.9967 93.9435 38.4255 95.7027 38.4255Z" fill="#5F9683"/>
<path d="M107.17 138.851C108.929 138.851 110.355 137.422 110.355 135.66C110.355 133.897 108.929 132.468 107.17 132.468C105.411 132.468 103.985 133.897 103.985 135.66C103.985 137.422 105.411 138.851 107.17 138.851Z" fill="#5F9683"/>
<path d="M31.7838 35.234C34.5985 35.234 36.8803 32.9478 36.8803 30.1277C36.8803 27.3075 34.5985 25.0213 31.7838 25.0213C28.9691 25.0213 26.6873 27.3075 26.6873 30.1277C26.6873 32.9478 28.9691 35.234 31.7838 35.234Z" fill="#5F9683"/>
<path d="M92.5174 168.213C95.3321 168.213 97.6139 165.927 97.6139 163.106C97.6139 160.286 95.3321 158 92.5174 158C89.7026 158 87.4208 160.286 87.4208 163.106C87.4208 165.927 89.7026 168.213 92.5174 168.213Z" fill="#5F9683"/>
<path d="M20.3166 169.489C22.0758 169.489 23.5019 168.06 23.5019 166.298C23.5019 164.535 22.0758 163.106 20.3166 163.106C18.5574 163.106 17.1313 164.535 17.1313 166.298C17.1313 168.06 18.5574 169.489 20.3166 169.489Z" fill="#5F9683"/>
<path d="M81.8996 124.17C83.6588 124.17 85.0849 122.741 85.0849 120.979C85.0849 119.216 83.6588 117.787 81.8996 117.787C80.1404 117.787 78.7143 119.216 78.7143 120.979C78.7143 122.741 80.1404 124.17 81.8996 124.17Z" fill="#5F9683"/>
<path d="M17.3436 89.9149C18.2819 89.9149 19.0425 89.1528 19.0425 88.2128C19.0425 87.2727 18.2819 86.5106 17.3436 86.5106C16.4054 86.5106 15.6448 87.2727 15.6448 88.2128C15.6448 89.1528 16.4054 89.9149 17.3436 89.9149Z" fill="#5F9683"/>
<path d="M38.3668 69.9149C39.305 69.9149 40.0656 69.1528 40.0656 68.2128C40.0656 67.2727 39.305 66.5106 38.3668 66.5106C37.4285 66.5106 36.668 67.2727 36.668 68.2128C36.668 69.1528 37.4285 69.9149 38.3668 69.9149Z" fill="#5F9683"/>
<path d="M71.9189 25.0213C72.8572 25.0213 73.6178 24.2592 73.6178 23.3191C73.6178 22.3791 72.8572 21.617 71.9189 21.617C70.9807 21.617 70.2201 22.3791 70.2201 23.3191C70.2201 24.2592 70.9807 25.0213 71.9189 25.0213Z" fill="#5F9683"/>
<path d="M85.0849 182.255C86.0232 182.255 86.7838 181.493 86.7838 180.553C86.7838 179.613 86.0232 178.851 85.0849 178.851C84.1467 178.851 83.3861 179.613 83.3861 180.553C83.3861 181.493 84.1467 182.255 85.0849 182.255Z" fill="#5F9683"/>
<path d="M76.5907 142.894C77.529 142.894 78.2896 142.132 78.2896 141.191C78.2896 140.251 77.529 139.489 76.5907 139.489C75.6525 139.489 74.8919 140.251 74.8919 141.191C74.8919 142.132 75.6525 142.894 76.5907 142.894Z" fill="#5F9683"/>
<path d="M63 8L64.4865 11.1915L67.8842 11.617L65.5483 13.9574L65.973 17.3617L63 15.8723L60.027 17.3617L60.4517 13.9574L58.1158 11.617L61.5135 11.1915L63 8Z" fill="#F1F38B"/>
<path fill-rule="evenodd" clip-rule="evenodd" d="M48.9184 97.3715L48.9524 97.3814C48.9219 97.365 48.9128 97.3629 48.9184 97.3715ZM46.6867 97.4167C46.2016 97.6318 45.7626 97.9313 45.3903 98.3012C44.8671 98.8187 44.4102 99.397 44.0291 100.024C45.2228 101.613 46.9134 103.944 49.1009 107.016C51.2891 110.089 55.0982 115.077 57.9448 119.451C56.4469 118.972 54.9965 118.491 53.5937 118.007C52.1911 117.524 49.9075 116.661 48.4268 116.117C46.3288 115.347 39.3244 111.993 37.8883 111.458C37.4039 112.217 37.0632 113.059 36.8819 113.945C36.7056 114.815 36.8541 115.56 37.3273 116.179C38.4864 117.363 41.6201 120.602 49.0314 128.394C52.6692 132.22 54.811 134 54.5096 135.751C54.2795 137.081 53.5915 138.122 52.3958 137.844C50.0763 137.305 49.5124 134.482 49.1149 134.745C47.9214 135.527 49.0415 138.42 51.138 139.829C52.5134 140.753 54.3504 140.403 55.3876 140.023C56.4984 139.62 57.6107 137.819 58.0613 136.519C58.6013 134.798 58.4235 133.572 56.2704 130.994C50.5135 124.111 43.3818 118.163 42.9151 117.716C47.2994 119.75 52.9474 122.077 53.9074 122.494C54.8673 122.911 59.4275 124.783 60.0966 125.034C61.1061 123.901 61.7245 122.988 61.9519 122.293C62.18 121.598 62.3278 121.322 61.8972 120.144C61.2932 118.498 59.5234 116.098 57.4644 113.051C55.2137 109.721 49.5891 102.529 49.5891 102.529C49.5891 102.529 65.1187 114.75 63.3273 113.506C64.4991 114.319 65.3693 114.843 65.9379 115.077C66.8337 115.45 67.5354 115.301 68.043 114.628C68.5506 113.955 69.0147 113.022 69.4351 111.829C69.1188 111.876 68.2615 111.553 67.41 110.956C63.2055 108.007 58.6996 104.698 53.7756 100.963C52.1087 99.6986 49.0015 97.4875 48.9235 97.3701C48.2928 97.1825 47.5151 97.0764 46.6867 97.4167Z" fill="white"/>
<path fill-rule="evenodd" clip-rule="evenodd" d="M69.5525 96.3918C69.5341 96.4236 69.5225 96.4589 69.5185 96.4957C69.5145 96.5324 69.5182 96.5698 69.5293 96.6057C69.7151 97.343 70.3137 101.22 70.3413 101.987C70.3689 102.754 70.2355 103.414 69.9452 103.955C69.6807 104.447 69.2883 104.698 68.768 104.706C68.2478 104.714 67.6713 104.547 67.0352 104.204L66.5761 103.957C67.0067 103.217 67.2959 102.404 67.4299 101.554C67.5654 100.751 67.5396 99.924 67.3539 99.1194C67.1697 98.3417 66.8223 97.6046 66.334 96.956C65.8284 96.2864 65.167 95.7428 64.4078 95.373C64.0986 95.2161 63.7618 95.1225 63.4187 95.098C63.0755 95.0734 62.7333 95.1185 62.4136 95.2303C61.7327 95.4531 61.1524 96.0113 60.6726 96.9051C60.2817 97.6334 60.1163 98.4833 60.1764 99.4547C60.2449 100.474 60.4983 101.48 60.9247 102.425C61.9024 104.6 63.5042 106.467 65.5296 107.792C66.6435 108.485 67.7292 108.737 68.7867 108.548C69.8431 108.36 70.5706 108.088 71.3564 106.597C72.1422 105.107 72.941 100.839 71.1377 97.4263L70.0585 96.2998C69.7873 96.2389 69.6165 96.2726 69.5525 96.3918ZM63.9868 101.789C63.5374 101.324 63.1285 100.823 62.7647 100.292C62.4541 99.8468 62.2087 99.3626 62.0359 98.854C61.8874 98.3958 61.9013 98.0023 62.0778 97.6735C62.2927 97.2732 62.6366 97.1554 63.1096 97.3199C63.5826 97.4844 64.0293 97.8388 64.4497 98.383C64.9094 99.0101 65.2423 99.7151 65.4298 100.458C65.6633 101.337 65.6652 102.252 65.4353 103.116C64.9213 102.707 64.4367 102.265 63.9868 101.789Z" fill="white"/>
<path fill-rule="evenodd" clip-rule="evenodd" d="M62.8647 88.0704C63.0778 87.7976 63.1941 87.4623 63.1967 87.1133C63.1945 86.7814 63.1148 86.4517 62.9638 86.1494C62.8123 85.8404 62.6116 85.5557 62.3693 85.3064C62.1399 85.0647 61.8733 84.8597 61.5798 84.6993C61.1091 84.4457 60.6956 84.397 60.3392 84.5534C59.9899 84.7026 59.6898 84.9403 59.4689 85.2428C59.1571 85.71 59.1018 86.2788 59.3033 86.9491C59.5022 87.6143 59.9506 88.1889 60.5569 88.5552C60.7331 88.6832 60.9346 88.7723 61.1471 88.8163C61.3596 88.8603 61.5777 88.8579 61.7859 88.8095C62.2346 88.7128 62.6214 88.4478 62.8647 88.0704ZM72.8273 88.6688C72.5748 88.7437 72.4376 88.8529 72.4233 88.9961C72.4156 89.0342 72.4176 89.074 72.4292 89.112C72.4408 89.1499 72.4616 89.1847 72.4898 89.2135C72.9249 89.7485 73.3219 90.3117 73.6776 90.8988C74.0083 91.4399 74.2873 92.0085 74.511 92.5971C74.704 93.0885 74.8199 93.6034 74.8547 94.1238C74.8919 94.5229 74.8057 94.9196 74.6073 95.262C74.506 95.4506 74.2707 95.4374 73.9014 95.2225C73.4398 94.9432 72.9996 94.6303 72.5846 94.2866C72.077 93.8761 71.5258 93.4048 70.9311 92.8729C70.3364 92.341 69.7657 91.8364 69.2192 91.3593C68.6707 90.8821 68.1747 90.4634 67.7311 90.1032C67.2875 89.7431 66.9591 89.5359 66.7459 89.4815C66.2823 89.3826 65.759 89.5095 65.176 89.8623C64.6009 90.2062 64.1164 90.6747 63.7581 91.2333C64.3934 91.6839 64.9931 92.1818 65.5515 92.7224C66.279 93.4023 67.0352 94.113 67.8199 94.8545C68.6046 95.5959 69.3584 96.2965 70.0813 96.9562C70.803 97.6181 71.3994 98.0755 71.8705 98.3285C72.2256 98.505 72.6178 98.5913 73.0098 98.5791C73.4682 98.5811 73.9224 98.5201 74.3591 98.398C74.7984 98.2773 75.2165 98.0973 75.6016 97.8631C75.9541 97.6609 76.2434 97.3704 76.4409 97.0201C76.9704 96.0339 77.0367 94.8502 76.64 93.4692C76.2432 92.0881 75.4448 90.6797 74.2446 89.244L72.8273 88.6688Z" fill="white"/>
<path fill-rule="evenodd" clip-rule="evenodd" d="M72.5396 73.1656C71.9239 73.0514 71.2944 73.0831 70.7042 73.2581C70.1856 73.4233 69.7159 73.7022 69.3298 74.074C68.9345 74.4573 68.6024 74.8987 68.3447 75.3834C67.9405 76.1234 67.7363 76.9575 67.7508 77.8091C67.7529 78.5914 67.8783 79.373 68.1224 80.1263C67.3956 79.5082 66.7338 78.963 66.1372 78.4906C65.5406 78.0182 64.9762 77.5742 64.444 77.1589C63.9122 76.7409 63.3914 76.3378 62.8815 75.9494C62.3717 75.561 61.8195 75.1502 61.225 74.7171C60.9392 74.5277 60.6004 74.4346 60.262 74.4525C59.8677 74.4705 59.4828 74.5608 59.1274 74.7186C58.7167 74.8961 58.3343 75.1282 57.9908 75.4083C57.6386 75.6874 57.3356 76.0206 57.0928 76.3958C57.2122 76.3847 57.5268 76.5733 58.0366 76.9617C58.5465 77.3501 59.1767 77.8593 59.9272 78.4892C61.0046 79.3716 62.1956 80.3911 63.5 81.5477C64.8044 82.7044 66.1146 83.8538 67.4306 84.9962C68.7458 86.1381 70.0055 87.2227 71.2098 88.2498C72.414 89.277 73.4467 90.1163 74.3079 90.7676C75.4167 91.5915 76.5383 91.9132 77.6725 91.7326C78.8068 91.552 79.7528 90.7577 80.5107 89.3496C81.2235 88.0384 81.5683 86.5559 81.5109 85.0483C81.4583 83.5371 81.1304 82.0378 80.5429 80.6212C79.9652 79.2117 79.158 77.8967 78.1535 76.7289C77.2445 75.643 76.138 74.7299 74.8934 74.0387C74.0197 73.5678 73.2351 73.2768 72.5396 73.1656ZM74.7816 79.5537C75.6965 80.3194 76.5286 81.1758 77.2637 82.1084C77.9378 82.9485 78.4796 83.8804 78.8704 84.8718C79.2238 85.7972 79.2275 86.5822 78.8815 87.2267C78.8249 87.3427 78.7446 87.4456 78.6453 87.5291C78.546 87.6126 78.4298 87.6751 78.3037 87.7128C78.1776 87.7505 78.0442 87.7626 77.9113 87.7485C77.7785 87.7343 77.649 87.6942 77.5305 87.6304C77.0284 87.3415 76.5525 87.0093 76.1089 86.638C75.4813 86.1281 74.8806 85.587 74.3092 85.017C73.6789 84.3978 73.0619 83.7351 72.4581 83.0287C71.8959 82.383 71.3818 81.6991 70.92 80.9827C70.5342 80.3943 70.2259 79.7623 70.0027 79.1023C69.8104 78.5087 69.8171 78.0213 70.0226 77.6402C70.1956 77.318 70.4818 77.1895 70.8811 77.2547C71.3534 77.3456 71.8091 77.5146 72.2284 77.7544C73.1372 78.2674 73.9921 78.87 74.7793 79.5525L74.7816 79.5537Z" fill="white"/>
<path fill-rule="evenodd" clip-rule="evenodd" d="M79.9057 64.523C78.8822 64.6236 78.0426 65.2847 77.3867 66.5065C76.8744 67.444 76.6688 68.521 76.7967 69.5966C76.9198 70.6913 77.2476 71.7613 77.7634 72.753C78.2866 73.7613 78.9618 74.6907 79.7654 75.5086C80.4908 76.2733 81.3307 76.9254 82.2544 77.441C83.3823 78.0488 84.5037 78.2064 85.6186 77.9139C86.7334 77.6213 87.593 76.9104 88.1974 75.781C88.7404 74.7694 88.9427 73.7424 88.8043 72.7C88.6646 71.6529 88.3128 70.6365 87.7695 69.711C87.2099 68.7528 86.5029 67.8814 85.6744 67.1288C84.8982 66.4051 84.0333 65.7793 83.1011 65.2669C81.995 64.6708 80.9298 64.4229 79.9057 64.523ZM82.8323 68.2814C83.5555 68.8746 84.2276 69.5258 84.8413 70.2276C85.4343 70.893 85.9429 71.6252 86.3555 72.4074C86.7364 73.1426 86.7879 73.769 86.5102 74.2863C86.4677 74.373 86.4065 74.4493 86.3307 74.5101C86.255 74.571 86.1663 74.6149 86.0707 74.6391C85.8632 74.6872 85.6454 74.6866 85.4347 74.6373C85.2077 74.5899 84.9847 74.523 84.7684 74.4375C84.5869 74.3678 84.4095 74.2876 84.2371 74.1973C83.6496 73.8565 83.0858 73.4766 82.5499 73.0603C81.8096 72.5055 81.1183 71.8898 80.4839 71.2203C79.8749 70.5926 79.3583 69.8855 78.9499 69.1207C78.5752 68.4046 78.5394 67.7644 78.8423 67.2001C78.9368 66.9891 79.1049 66.8197 79.3175 66.7212C79.509 66.6438 79.7194 66.6166 79.9284 66.6424C80.1538 66.6694 80.3752 66.7276 80.586 66.8151C80.7851 66.8937 80.9798 66.9832 81.1691 67.0833C81.5676 67.3017 82.1203 67.6997 82.8272 68.2772L82.8323 68.2814Z" fill="white"/>
<defs>
<filter id="filter0_d_243_3583" x="0" y="0" width="126" height="196" filterUnits="userSpaceOnUse" color-interpolation-filters="sRGB">
<feFlood flood-opacity="0" result="BackgroundImageFix"/>
<feColorMatrix in="SourceAlpha" type="matrix" values="0 0 0 0 0 0 0 0 0 0 0 0 0 0 0 0 0 0 127 0" result="hardAlpha"/>
<feOffset/>
<feGaussianBlur stdDeviation="1.5"/>
<feComposite in2="hardAlpha" operator="out"/>
<feColorMatrix type="matrix" values="0 0 0 0 0 0 0 0 0 0 0 0 0 0 0 0 0 0 0.3 0"/>
<feBlend mode="normal" in2="BackgroundImageFix" result="effect1_dropShadow_243_3583"/>
<feBlend mode="normal" in="SourceGraphic" in2="effect1_dropShadow_243_3583" result="shape"/>
</filter>
</defs>
</svg>
