<svg width="113" height="128" viewBox="0 0 113 128" fill="none" xmlns="http://www.w3.org/2000/svg">
<path d="M9.06507 125.178C7.39999 125.174 5.80426 124.505 4.62687 123.317C3.44947 122.129 2.78623 120.519 2.7822 118.84V46.0661C2.78791 45.0909 3.01392 44.1299 3.44304 43.2561C3.87216 42.3823 4.4931 41.6187 5.25866 41.0233L53.3815 3.88857C54.4772 3.03843 55.8209 2.57758 57.2032 2.57775C58.6316 2.57041 60.0209 3.04845 61.1472 3.93483L107.818 41.0541C108.563 41.6478 109.166 42.4047 109.579 43.2676C109.992 44.1306 110.205 45.077 110.203 46.0352V118.84C110.203 120.515 109.545 122.123 108.373 123.311C107.201 124.498 105.611 125.17 103.95 125.178H9.06507Z" fill="#FFCE00" stroke="#213843" stroke-width="4"/>
</svg>
