<svg width="114" height="127" viewBox="0 0 114 127" fill="none" xmlns="http://www.w3.org/2000/svg">
<path d="M56.2906 124.792C54.8912 124.776 53.5362 124.299 52.4351 123.435L5.22808 86.3314C4.47296 85.7393 3.86252 84.983 3.44301 84.12C3.02351 83.257 2.80595 82.3098 2.80681 81.3503V8.53042C2.81088 6.85068 3.47999 5.2409 4.66781 4.05314C5.85562 2.86538 7.46547 2.1963 9.14529 2.19223H104.87C106.55 2.1963 108.16 2.86538 109.348 4.05314C110.535 5.2409 111.205 6.85068 111.209 8.53042V81.3194C111.207 82.2915 110.982 83.2502 110.552 84.1218C110.121 84.9934 109.497 85.7546 108.726 86.3468L60.1461 123.497C59.036 124.336 57.6824 124.791 56.2906 124.792Z" fill="#7F46FD" stroke="#213843" stroke-width="4"/>
</svg>
