<svg version="1.2" xmlns="http://www.w3.org/2000/svg" viewBox="0 0 150 105" width="150" height="105">
	<title>赢得多少-svg</title>
	<style>
		.s0 { fill: #1a2c38;stroke: #00e700;stroke-width: 3 } 
		.s1 { fill: #ff9724 } 
		.s2 { fill: #ffffff } 
		.s3 { fill: none;stroke: #304554;stroke-width: 3 } 
	</style>
	<path id="Layer" class="s0" d="m1.5 9c0-4.1 3.4-7.5 7.5-7.5h132c4.1 0 7.5 3.4 7.5 7.5v87c0 4.1-3.4 7.5-7.5 7.5h-132c-4.1 0-7.5-3.4-7.5-7.5z"/>
	<path id="Layer" class="s1" d="m125 81c0 3.9-3.1 7-7 7-3.9 0-7-3.1-7-7 0-3.9 3.1-7 7-7 3.9 0 7 3.1 7 7z"/>
	<path id="Layer" fill-rule="evenodd" class="s2" d="m118.5 84.7v0.9h-0.8v-0.9c-1.1-0.1-1.9-0.5-2.5-1.1l0.7-1c0.4 0.5 1 0.9 1.8 1v-2.1c-1.1-0.2-2.3-0.6-2.3-2 0-1.1 0.9-2 2.3-2.1v-1h0.8v1q1.3 0.2 2.1 1l-0.7 0.9c-0.4-0.4-0.9-0.6-1.4-0.7v1.8c1.1 0.3 2.3 0.7 2.3 2.1 0 1.1-0.7 2-2.3 2.2zm-0.8-4.5v-1.7c-0.6 0.1-1 0.4-1 0.9 0 0.4 0.4 0.6 1 0.8zm1.8 2.4c0-0.4-0.4-0.7-1-0.8v1.8c0.7-0.1 1-0.6 1-1z"/>
	<path id="Layer" class="s3" d="m57 60.5h35"/>
</svg>