<svg width="90" height="172" viewBox="0 0 90 172" fill="none" xmlns="http://www.w3.org/2000/svg">
<g clip-path="url(#clip0_14_4823)">
<path d="M16.7912 157.016H14.6702L12.3725 153.292L11.5771 153.858V157.016H9.66821V148.17H11.5329V152.213L12.2752 151.178L14.6702 148.17H16.7912L13.7069 152.08L16.7912 157.016Z" fill="#8690A4"/>
<path d="M17.8779 157.016V148.17H19.7515V157.016H17.8779Z" fill="#8690A4"/>
<path d="M29.8084 157.016H27.3958L23.5869 150.373H23.5339C23.6134 151.558 23.6488 152.398 23.6488 152.903V157.06H21.9785V148.215H24.3381L28.1735 154.796H28.2177C28.1559 153.646 28.1293 152.841 28.1293 152.363V148.179H29.8084V157.016Z" fill="#8690A4"/>
<path d="M35.3495 152.053H38.8845V156.635C38.3608 156.812 37.8226 156.942 37.2761 157.025C36.7673 157.103 36.2532 157.142 35.7384 157.14C35.1769 157.174 34.6146 157.087 34.0899 156.884C33.5652 156.681 33.0905 156.367 32.6983 155.963C31.9348 155.009 31.5564 153.804 31.6378 152.584C31.601 151.974 31.6912 151.362 31.9026 150.788C32.1141 150.214 32.4422 149.69 32.8662 149.249C33.3204 148.836 33.8517 148.517 34.4296 148.311C35.0075 148.105 35.6205 148.015 36.2333 148.046C37.1455 148.042 38.0486 148.229 38.8845 148.595L38.2659 150.09C37.6405 149.776 36.9506 149.612 36.251 149.612C35.887 149.596 35.524 149.661 35.188 149.802C34.8519 149.942 34.551 150.155 34.3067 150.426C33.797 151.039 33.5381 151.823 33.5821 152.62C33.5285 153.398 33.7336 154.172 34.1653 154.822C34.3705 155.075 34.6331 155.276 34.9314 155.406C35.2296 155.537 35.5548 155.595 35.8798 155.574C36.2802 155.574 36.6798 155.536 37.0728 155.459V153.61H35.3495V152.053Z" fill="#8690A4"/>
<path d="M44.187 148.179H46.9354C47.8767 148.11 48.8194 148.293 49.6662 148.71C49.9544 148.887 50.1889 149.14 50.3446 149.441C50.5003 149.742 50.5713 150.079 50.5499 150.417C50.5673 150.879 50.4373 151.334 50.1788 151.717C50.0629 151.88 49.9156 152.018 49.7456 152.123C49.5756 152.228 49.3863 152.297 49.189 152.328V152.381C49.6661 152.459 50.0975 152.711 50.3997 153.088C50.7119 153.603 50.8334 154.211 50.7429 154.806C50.6524 155.401 50.3558 155.945 49.9048 156.344C49.2093 156.826 48.3727 157.063 47.5275 157.016H44.187V148.179ZM46.0605 151.717H47.1475C47.5312 151.747 47.9152 151.664 48.2522 151.479C48.3704 151.388 48.464 151.27 48.5243 151.134C48.5845 150.998 48.6095 150.848 48.5969 150.7C48.6087 150.555 48.5802 150.41 48.5147 150.281C48.4492 150.151 48.3492 150.042 48.2257 149.966C47.858 149.797 47.4543 149.721 47.0503 149.745H46.0782L46.0605 151.717ZM46.0605 153.203V155.503H47.2801C47.6847 155.535 48.0884 155.432 48.429 155.211C48.5502 155.099 48.6454 154.962 48.708 154.809C48.7706 154.656 48.799 154.492 48.7913 154.327C48.7913 153.593 48.2699 153.23 47.2271 153.23L46.0605 153.203Z" fill="#8690A4"/>
<path d="M57.6108 157.016H52.5205V148.17H57.6108V149.701H54.394V151.647H57.3811V153.177H54.394V155.459H57.6108V157.016Z" fill="#8690A4"/>
<path d="M59.4492 157.016V148.17H61.3227V157.016H59.4492Z" fill="#8690A4"/>
<path d="M71.3797 157.016H69.0025L65.1582 150.373H65.1052C65.1847 151.558 65.2201 152.398 65.2201 152.903V157.06H63.5498V148.215H65.9094L69.7448 154.796C69.683 153.646 69.6476 152.841 69.6476 152.363V148.179H71.3355L71.3797 157.016Z" fill="#8690A4"/>
<path d="M76.9561 152.053H80.4911V156.635C79.9671 156.811 79.429 156.942 78.8827 157.025C78.3739 157.103 77.8597 157.142 77.345 157.14C76.7718 157.186 76.1955 157.104 75.6576 156.901C75.1197 156.698 74.6336 156.377 74.2342 155.963C73.4707 155.009 73.0922 153.804 73.1737 152.584C73.1369 151.974 73.2271 151.362 73.4385 150.788C73.65 150.214 73.9781 149.69 74.4021 149.249C74.8594 148.833 75.3951 148.512 75.9778 148.306C76.5605 148.099 77.1785 148.011 77.7957 148.047C78.7079 148.042 79.611 148.229 80.4469 148.595L79.8283 150.09C79.2029 149.776 78.513 149.612 77.8134 149.612C77.4494 149.596 77.0864 149.661 76.7504 149.802C76.4143 149.942 76.1134 150.155 75.8691 150.426C75.3562 151.038 75.0941 151.822 75.1356 152.62C75.0847 153.399 75.2929 154.174 75.7277 154.822C75.9324 155.076 76.195 155.277 76.4933 155.407C76.7917 155.538 77.1171 155.595 77.4422 155.574C77.8397 155.575 78.2364 155.536 78.6264 155.459V153.61H76.9561V152.053Z" fill="#8690A4"/>
<path d="M9.72105 171.876H7.81217V164.596H5.41724V163.04H12.0806V164.596H9.72105V171.876Z" fill="#8690A4"/>
<path d="M20.6795 171.876H18.8148V168.064H15.2798V171.876H13.4417V163.031H15.3152V166.489H18.8501V163.031H20.6795V171.876Z" fill="#8690A4"/>
<path d="M27.9968 171.876H22.9065V163.031H27.9968V164.561H24.7447V166.507H27.7405V168.064H24.7447V170.346H27.9615L27.9968 171.876Z" fill="#8690A4"/>
<path d="M40.2896 171.876H38.4249V168.064H34.8899V171.876H33.0518V163.031H34.9253V166.489H38.4602V163.031H40.3249L40.2896 171.876Z" fill="#8690A4"/>
<path d="M42.5166 171.876V163.031H44.3901V171.876H42.5166Z" fill="#8690A4"/>
<path d="M49.9665 166.914H53.5015V171.496C52.9775 171.672 52.4394 171.802 51.8931 171.885C51.3843 171.964 50.8702 172.002 50.3554 172C49.7923 172.037 49.228 171.951 48.7015 171.748C48.175 171.545 47.699 171.229 47.3065 170.824C46.5429 169.87 46.1645 168.664 46.246 167.445C46.2092 166.834 46.2993 166.222 46.5108 165.648C46.7222 165.074 47.0503 164.55 47.4744 164.11C47.9306 163.692 48.4661 163.37 49.0491 163.163C49.6321 162.957 50.2506 162.869 50.8679 162.907C51.7802 162.903 52.6832 163.09 53.5192 163.455L52.9005 164.95C52.2751 164.636 51.5852 164.473 50.8856 164.473C50.5219 164.458 50.1595 164.524 49.8237 164.664C49.4879 164.805 49.1868 165.017 48.9414 165.286C48.43 165.899 48.1681 166.682 48.2079 167.48C48.1569 168.259 48.3651 169.034 48.8 169.683C49.0047 169.936 49.2672 170.137 49.5656 170.268C49.864 170.399 50.1894 170.456 50.5144 170.434C50.9149 170.435 51.3145 170.396 51.7075 170.319V168.471H50.0284L49.9665 166.914Z" fill="#8690A4"/>
<path d="M62.8074 171.876H60.9781V168.064H57.4431V171.876H55.5696V163.031H57.4431V166.489H60.9781V163.031H62.8428L62.8074 171.876Z" fill="#8690A4"/>
<path d="M70.1247 171.876H65.0432V163.031H70.1247V164.561H66.9167V166.507H69.9038V168.064H66.9167V170.346H70.1247V171.876Z" fill="#8690A4"/>
<path d="M77.1859 169.426C77.1984 169.788 77.1248 170.147 76.9711 170.475C76.8175 170.802 76.5882 171.089 76.3022 171.31C75.6065 171.808 74.761 172.052 73.9072 172C73.044 172.016 72.1885 171.835 71.4062 171.469V169.7C71.8972 169.926 72.4055 170.113 72.9263 170.257C73.2939 170.365 73.6745 170.422 74.0575 170.425C74.3898 170.446 74.7202 170.362 75.0031 170.187C75.1105 170.106 75.1965 170 75.2535 169.878C75.3105 169.756 75.3368 169.622 75.33 169.488C75.3345 169.323 75.2849 169.162 75.1887 169.028C75.0701 168.87 74.9233 168.735 74.7556 168.63C74.3871 168.411 74.0065 168.213 73.6156 168.037C73.1807 167.843 72.7712 167.597 72.396 167.303C72.131 167.076 71.912 166.799 71.7509 166.489C71.5852 166.151 71.5033 165.778 71.5123 165.401C71.4955 165.053 71.5584 164.705 71.6963 164.385C71.8341 164.064 72.0432 163.78 72.3077 163.553C72.9358 163.076 73.7123 162.838 74.4993 162.88C74.9436 162.881 75.3859 162.937 75.8161 163.048C76.2641 163.165 76.7016 163.319 77.124 163.508L76.5231 164.959C76.1407 164.8 75.748 164.667 75.3477 164.561C75.059 164.486 74.7622 164.448 74.464 164.446C74.1718 164.426 73.8824 164.514 73.6509 164.694C73.5458 164.779 73.4633 164.889 73.4109 165.014C73.3584 165.139 73.3377 165.275 73.3505 165.41C73.3455 165.563 73.3854 165.713 73.4654 165.844C73.5634 165.983 73.6863 166.103 73.8277 166.197C74.2134 166.426 74.6117 166.633 75.0207 166.817C75.6664 167.086 76.2455 167.494 76.7175 168.011C77.0251 168.418 77.1898 168.915 77.1859 169.426Z" fill="#8690A4"/>
<path d="M82.1877 171.876H80.3141V164.596H77.9192V163.04H84.5914V164.596H82.1877V171.876Z" fill="#8690A4"/>
<path d="M79.5807 133H10.4193C7.65664 132.998 5.00781 131.899 3.05432 129.943C1.10083 127.988 0.00234024 125.337 0 122.572L0 10.4288C0.00234024 7.66363 1.10083 5.01238 3.05432 3.05711C5.00781 1.10184 7.65664 0.00234237 10.4193 0L79.5807 0C82.3434 0.00234237 84.9922 1.10184 86.9457 3.05711C88.8992 5.01238 89.9977 7.66363 90 10.4288V122.572C89.9977 125.337 88.8992 127.988 86.9457 129.943C84.9922 131.899 82.3434 132.998 79.5807 133ZM10.4193 1.76909C8.1254 1.77143 5.92614 2.68455 4.30412 4.30805C2.6821 5.93155 1.76982 8.13282 1.76748 10.4288V122.572C1.76982 124.868 2.6821 127.069 4.30412 128.692C5.92614 130.316 8.1254 131.229 10.4193 131.231H79.5807C81.8746 131.229 84.0739 130.316 85.6959 128.692C87.3179 127.069 88.2302 124.868 88.2325 122.572V10.4288C88.2302 8.13282 87.3179 5.93155 85.6959 4.30805C84.0739 2.68455 81.8746 1.77143 79.5807 1.76909H10.4193Z" fill="#213843"/>
<path d="M18.0726 19.1858C18.0714 19.0786 18.0916 18.9722 18.132 18.873C18.1725 18.7737 18.2323 18.6835 18.3081 18.6077C18.3838 18.5319 18.4739 18.472 18.5731 18.4315C18.6722 18.3911 18.7785 18.3708 18.8856 18.372H21.855C22.0683 18.3766 22.2716 18.4641 22.4217 18.6159C22.5717 18.7678 22.6569 18.9722 22.6592 19.1858V28.3055L31.1607 18.717C31.2348 18.6147 31.3317 18.531 31.4437 18.4727C31.5556 18.4143 31.6796 18.3829 31.8059 18.3808H35.1818C35.3239 18.3764 35.464 18.4145 35.5845 18.4901C35.7049 18.5657 35.8001 18.6756 35.8579 18.8055C35.9157 18.9355 35.9336 19.0798 35.9092 19.22C35.8848 19.3602 35.8192 19.4899 35.7208 19.5927L26.8834 29.5261L36.3571 40.8306C36.4401 40.9407 36.4905 41.0719 36.5025 41.2092C36.5145 41.3466 36.4876 41.4845 36.4249 41.6073C36.3622 41.73 36.2662 41.8326 36.1479 41.9034C36.0297 41.9741 35.8939 42.01 35.7562 42.0071H32.071C31.9599 42.0176 31.8479 42.0024 31.7436 41.9625C31.6394 41.9226 31.5458 41.8591 31.47 41.7771L22.6327 30.8972V41.2021C22.6281 41.4142 22.542 41.6163 22.3921 41.7663C22.2423 41.9163 22.0403 42.0026 21.8285 42.0071H18.8856C18.7789 42.0095 18.6729 41.9903 18.5737 41.9508C18.4746 41.9113 18.3844 41.8523 18.3085 41.7772C18.2327 41.7021 18.1727 41.6124 18.1322 41.5137C18.0916 41.4149 18.0713 41.3089 18.0726 41.2021V19.1858Z" fill="#213843"/>
<path d="M40.0598 89.8876L34.7662 82.9174L29.4815 75.9471L24.1879 82.9174L18.8943 89.8876H28.0145V105.748H30.9397V89.8876H40.0598Z" fill="#213843"/>
<path d="M39.9715 68.1366H18.9827V70.5779H39.9715V68.1366Z" fill="#213843"/>
</g>
<defs>
<clipPath id="clip0_14_4823">
<rect width="90" height="172" fill="white"/>
</clipPath>
</defs>
</svg>
