<svg width="21" height="182" viewBox="0 0 21 182" fill="none" xmlns="http://www.w3.org/2000/svg">
<g clip-path="url(#clip0_243_3815)">
<path d="M1.59191 133.247L6.04596 139.098L10.5 144.957L14.954 139.098L19.4081 133.247H11.7372V0H9.27101V133.247H1.59191Z" fill="#213843"/>
<path d="M0.0659857 181.176L9.89788 160.005C9.94143 159.9 10.0161 159.81 10.1119 159.748C10.2076 159.687 10.32 159.655 10.434 159.659H10.7227C10.8372 159.653 10.9506 159.683 11.0469 159.745C11.1431 159.807 11.2173 159.898 11.2588 160.005L20.9588 181.176C21.0064 181.264 21.0293 181.364 21.0251 181.465C21.0209 181.565 20.9898 181.662 20.935 181.747C20.8802 181.831 20.8037 181.899 20.7135 181.943C20.6234 181.988 20.5229 182.008 20.4226 182H17.6677C17.4662 182.011 17.2668 181.955 17.101 181.84C16.9351 181.725 16.8124 181.558 16.7522 181.365L15.2097 178.003H5.77376L4.23134 181.398C4.1657 181.586 4.0428 181.748 3.88001 181.862C3.71721 181.976 3.52274 182.035 3.32404 182.033H0.602121C0.497024 182.045 0.390737 182.027 0.295522 181.981C0.200307 181.935 0.120044 181.863 0.0639935 181.773C0.00794317 181.683 -0.0216106 181.58 -0.0212581 181.474C-0.0209056 181.369 0.00933881 181.265 0.0659857 181.176ZM13.6673 174.476L10.5165 167.554H10.4258L7.34093 174.476H13.6673Z" fill="#2E4451"/>
</g>
<defs>
<clipPath id="clip0_243_3815">
<rect width="21" height="182" fill="white"/>
</clipPath>
</defs>
</svg>
