<svg width="21" height="181" viewBox="0 0 21 181" fill="none" xmlns="http://www.w3.org/2000/svg">
<g clip-path="url(#clip0_243_3811)">
<path d="M1.88431 0.755937C1.88209 0.656753 1.89996 0.558139 1.93686 0.465964C1.97376 0.373789 2.02894 0.289939 2.09911 0.219406C2.16928 0.148873 2.25301 0.0930986 2.34531 0.0554035C2.43761 0.0177084 2.5366 -0.00113667 2.63638 -9.70968e-06H5.41324C5.61422 0.00212766 5.80637 0.0824581 5.94849 0.223765C6.09062 0.365072 6.17142 0.556111 6.17357 0.755937V9.21926L14.124 0.312229C14.1915 0.217355 14.2806 0.139641 14.384 0.0853912C14.4873 0.0311414 14.6021 0.00188339 14.719 -9.70968e-06H17.876C18.0106 -0.00583916 18.1438 0.0288214 18.2582 0.099443C18.3727 0.170065 18.463 0.273363 18.5175 0.395839C18.5719 0.518316 18.5879 0.654275 18.5634 0.785951C18.539 0.917627 18.4751 1.0389 18.3802 1.13391L10.1157 10.3532L19.0083 20.8625C19.0831 20.966 19.1276 21.0882 19.1368 21.2154C19.1461 21.3426 19.1197 21.4698 19.0607 21.583C19.0016 21.6962 18.9122 21.7909 18.8022 21.8566C18.6923 21.9223 18.5663 21.9565 18.438 21.9553H14.9752C14.8702 21.964 14.7645 21.9493 14.6659 21.9123C14.5673 21.8754 14.4781 21.8171 14.405 21.7417L6.14051 11.635V21.2076C6.13623 21.406 6.05449 21.5949 5.91259 21.7345C5.77069 21.874 5.57976 21.9532 5.38018 21.9553H2.63638C2.53731 21.9564 2.43901 21.9378 2.34727 21.9006C2.25552 21.8635 2.17217 21.8084 2.10212 21.7388C2.03206 21.6691 1.9767 21.5862 1.9393 21.495C1.9019 21.4038 1.8832 21.3061 1.88431 21.2076V0.755937Z" fill="#213843"/>
<path d="M19.4298 48.1423L14.9669 42.3084L10.4959 36.4744L6.03306 42.3084L1.57025 48.1423H9.26447V181H11.7355V48.1423H19.4298Z" fill="#213843"/>
</g>
<defs>
<clipPath id="clip0_243_3811">
<rect width="21" height="181" fill="white"/>
</clipPath>
</defs>
</svg>
